<svg width="398" height="354" viewBox="0 0 398 354" fill="none" xmlns="http://www.w3.org/2000/svg">
<g clip-path="url(#clip0_167:810)" filter="url(#filter0_d_167:810)">
<path d="M209.408 9.69163C212.743 9.69163 216.078 9.69163 219.413 9.69163C226.012 9.76081 231.192 14.534 231.334 20.6906C231.547 27.124 226.864 32.4506 220.194 32.6581C212.956 32.9348 205.648 32.9348 198.339 32.6581C191.74 32.4506 186.986 26.9857 187.199 20.6906C187.483 14.4648 192.591 9.76081 199.19 9.69163C202.596 9.62246 206.002 9.69163 209.408 9.69163ZM209.124 25.8789C212.459 25.8789 215.794 25.948 219.129 25.8789C222.181 25.8097 224.238 23.9419 224.238 21.2441C224.238 18.5462 222.181 16.5401 219.2 16.4709C212.601 16.4017 206.073 16.4017 199.474 16.4709C196.423 16.4709 194.365 18.477 194.365 21.1057C194.365 23.8728 196.423 25.8097 199.616 25.8097C202.738 25.948 205.931 25.8789 209.124 25.8789Z" fill="#80B51C"/>
<path d="M304.136 9.69163C307.471 9.69163 310.806 9.69163 314.14 9.69163C320.739 9.76081 325.919 14.534 326.132 20.6906C326.345 27.124 321.804 32.3814 315.063 32.6581C307.825 32.9348 300.517 32.9348 293.208 32.6581C286.609 32.3814 281.784 27.0549 281.997 20.8982C282.139 14.534 287.39 9.76081 294.131 9.69163C297.466 9.62246 300.801 9.69163 304.136 9.69163ZM303.923 25.8789C307.187 25.8789 310.38 25.8789 313.644 25.8789C316.766 25.8789 318.966 23.9419 319.036 21.2441C319.036 18.5462 316.837 16.5401 313.786 16.4709C307.329 16.4017 300.801 16.4017 294.344 16.4709C291.221 16.4709 289.093 18.477 289.093 21.2441C289.164 23.9419 291.292 25.8789 294.485 25.8789C297.608 25.948 300.801 25.8789 303.923 25.8789Z" fill="#80B51C"/>
<path d="M384.104 21.1753C384.104 18.0623 384.104 15.0186 384.104 11.9056C384.104 10.2454 384.671 9.00024 386.587 9.00024C388.361 9.00024 389.07 10.1762 389.07 11.7673C389.07 17.9931 389.07 24.219 389.07 30.514C389.07 32.1743 388.29 33.4194 386.445 33.3503C384.742 33.2811 384.104 32.1051 384.104 30.514C384.104 27.3319 384.104 24.219 384.104 21.1753Z" fill="#80B51C"/>
<path d="M378.853 29.2L363.243 10.1074C362.675 9.41559 361.895 9.13889 361.043 9.20806C360.263 9.13889 359.411 9.41559 358.843 10.1074L343.233 29.2C342.381 30.2376 342.523 31.8287 343.659 32.6588C344.155 33.0047 344.652 33.2122 345.22 33.2122C345.929 33.2122 346.71 32.8663 347.207 32.3129L350.116 28.7849H371.758C371.829 28.7849 371.97 28.7849 372.041 28.7849L374.951 32.3129C375.447 32.9355 376.157 33.2122 376.937 33.2122C377.505 33.2122 378.073 33.0047 378.498 32.6588C379.563 31.7595 379.705 30.2376 378.853 29.2ZM354.089 23.8042L361.043 15.2956L367.997 23.8042H354.089Z" fill="#80B51C"/>
<path d="M276.959 10.7295C275.753 9.06924 273.34 8.65419 271.637 9.83018L256.595 20.1374L241.481 9.83018C239.778 8.65419 237.365 9.06924 236.159 10.7295C234.953 12.3897 235.378 14.7417 237.081 15.9177L252.479 26.4325V29.5454C252.479 31.6899 254.253 33.4884 256.524 33.4884C258.794 33.4884 260.568 31.759 260.568 29.5454V26.5016L276.037 15.9177C277.74 14.7417 278.165 12.3897 276.959 10.7295Z" fill="#80B51C"/>
<path d="M183.722 26.7077L171.092 10.7972C169.744 9.06779 167.189 8.79109 165.415 10.1054C165.061 10.3821 164.848 10.6588 164.564 11.0047L155.269 21.6579L145.831 10.8664C145.619 10.5897 145.335 10.3821 145.051 10.2438C144.98 10.1746 144.909 10.1054 144.838 10.0363C143.064 8.72191 140.581 8.99862 139.161 10.728L126.531 26.6385C125.183 28.3679 125.467 30.7891 127.241 32.1726C127.95 32.726 128.873 33.0028 129.724 33.0028C130.93 33.0028 132.137 32.4493 132.917 31.4809L142.567 19.3059L152.005 30.0974C152.359 30.4432 152.714 30.7891 153.14 30.9966C153.211 31.0658 153.353 31.0658 153.424 31.135C153.991 31.4117 154.559 31.5501 155.198 31.5501C156.333 31.5501 157.468 31.0658 158.249 30.1665L167.757 19.375L177.336 31.4809C178.117 32.4493 179.323 33.0028 180.529 33.0028C181.381 33.0028 182.232 32.726 183.013 32.1726C184.787 30.8583 185.071 28.4371 183.722 26.7077Z" fill="#80B51C"/>
</g>
<path d="M333.101 319.828L272.252 284.594C271.989 284.458 271.697 284.387 271.4 284.387C271.104 284.387 270.812 284.458 270.548 284.594L214.944 316.624C214.842 316.659 214.753 316.725 214.69 316.813C214.627 316.901 214.593 317.007 214.593 317.115C214.593 317.223 214.627 317.329 214.69 317.417C214.753 317.505 214.842 317.571 214.944 317.606L275.801 352.84C276.064 352.976 276.354 353.047 276.65 353.047C276.945 353.047 277.235 352.976 277.498 352.84L333.109 320.81C333.572 320.543 333.572 320.103 333.101 319.828Z" fill="#E0E0E0"/>
<path d="M275.175 235.51L214.318 200.275C214.054 200.143 213.764 200.075 213.47 200.075C213.175 200.075 212.885 200.143 212.622 200.275L47.5853 295.377C47.1141 295.644 47.1141 296.084 47.5853 296.359L108.434 331.562C108.697 331.695 108.988 331.765 109.282 331.765C109.577 331.765 109.868 331.695 110.131 331.562L275.175 236.491C275.277 236.456 275.366 236.39 275.429 236.302C275.492 236.214 275.526 236.109 275.526 236C275.526 235.892 275.492 235.786 275.429 235.698C275.366 235.61 275.277 235.544 275.175 235.51Z" fill="#E0E0E0"/>
<path d="M62.5759 305.318C96.8368 305.318 124.611 283.697 124.611 257.025C124.611 230.354 96.8368 208.732 62.5759 208.732C28.315 208.732 0.541016 230.354 0.541016 257.025C0.541016 283.697 28.315 305.318 62.5759 305.318Z" fill="#E0E0E0"/>
<path d="M264.181 227.634C263.702 226.4 263.349 225.122 263.129 223.817C262.564 220.899 262.811 217.881 263.844 215.093C264.37 213.706 265.177 212.442 266.213 211.381C267.249 210.319 268.493 209.482 269.867 208.921C270.826 208.682 271.719 208.225 272.474 207.586C273.186 206.735 273.72 205.75 274.044 204.689C274.534 202.953 275.175 201.263 275.96 199.639C277.109 197.808 278.872 196.445 280.934 195.796C282.996 195.147 285.222 195.254 287.213 196.098C288.108 196.514 288.925 197.072 289.843 197.409C292.772 198.485 295.992 195.682 298.662 194.755C301.842 193.656 305.556 193.106 308.65 194.755C312.521 196.828 312.835 201.155 309.844 204.288C308.438 205.756 306.703 207.099 306.2 209.07C305.493 211.921 307.771 214.795 307.37 217.708C306.978 220.802 305.203 221.94 302.345 222.82L299.133 223.817C297.82 224.092 296.612 224.731 295.646 225.663C294.304 227.233 294.335 229.73 293.809 231.63C293.496 232.626 292.978 233.545 292.288 234.328C291.599 235.111 290.752 235.741 289.804 236.177C286.254 237.956 282.253 238.632 278.316 238.117C275.9 237.913 273.543 237.261 271.366 236.193C268.225 234.528 265.681 231.183 264.299 227.971L264.181 227.634Z" fill="#80B51C"/>
<path d="M267.762 231.049C268.689 231.575 270.259 228.159 270.715 227.523C271.869 225.882 273.071 224.296 274.366 222.749C276.672 219.963 279.167 217.339 281.834 214.897C285.843 211.176 290.245 207.903 294.963 205.136C296.893 203.962 298.915 202.949 301.01 202.105C301.126 202.061 301.22 201.972 301.272 201.859C301.323 201.746 301.328 201.617 301.285 201.5C301.265 201.442 301.233 201.389 301.192 201.343C301.151 201.298 301.101 201.261 301.045 201.236C300.989 201.21 300.929 201.196 300.867 201.194C300.806 201.192 300.745 201.203 300.688 201.225C293.888 203.793 287.558 208.497 282.18 213.271C279.349 215.783 276.701 218.494 274.256 221.383C273.298 222.506 266.757 230.178 267.699 230.963L267.762 231.049Z" fill="white"/>
<path d="M280.396 215.925H280.506C287.118 215.211 297.342 217.237 297.444 217.252C297.566 217.276 297.692 217.25 297.795 217.181C297.898 217.112 297.969 217.005 297.994 216.883C298.006 216.823 298.007 216.761 297.995 216.7C297.983 216.64 297.959 216.582 297.925 216.531C297.89 216.48 297.846 216.436 297.795 216.402C297.743 216.368 297.685 216.345 297.625 216.334C297.201 216.247 287.165 214.268 280.404 214.991C280.281 214.991 280.163 215.04 280.077 215.127C279.99 215.213 279.941 215.331 279.941 215.454C279.941 215.577 279.99 215.695 280.077 215.782C280.163 215.869 280.281 215.917 280.404 215.917L280.396 215.925Z" fill="white"/>
<path d="M283.812 212.847C283.874 212.851 283.936 212.843 283.994 212.824C284.052 212.804 284.106 212.772 284.152 212.731C284.198 212.69 284.236 212.641 284.262 212.585C284.289 212.529 284.304 212.469 284.307 212.407C284.485 209.028 284.178 205.641 283.396 202.348C283.36 202.234 283.28 202.137 283.175 202.079C283.07 202.021 282.946 202.005 282.829 202.035C282.713 202.065 282.612 202.139 282.548 202.241C282.484 202.343 282.462 202.466 282.485 202.584C283.234 205.783 283.532 209.071 283.373 212.353C283.366 212.476 283.409 212.598 283.491 212.69C283.573 212.783 283.689 212.839 283.812 212.847Z" fill="white"/>
<path d="M124.966 96.6273C122.099 93.6361 116.984 84.9458 112.745 77.7688C109.196 71.7599 105.249 66.0165 98.727 66.2643L98.3818 77.3971C102.426 84.2113 106.957 93.5299 116.187 104.052C117.648 105.677 119.465 106.94 121.497 107.742L124.966 96.6273Z" fill="#EB996E"/>
<path d="M85.1377 267.847L84.3066 282.099C84.3066 282.099 98.5201 287.732 98.6201 290.379L70.9165 290.241L71.309 267.501L85.1377 267.847Z" fill="#455A64"/>
<g opacity="0.6">
<path opacity="0.6" d="M75.7723 280.706C75.5042 280.784 75.2734 280.956 75.1233 281.191C74.9731 281.426 74.9138 281.708 74.9566 281.984C75.0227 282.255 75.1904 282.491 75.4251 282.643C75.6599 282.795 75.9439 282.851 76.2186 282.799C76.5032 282.72 76.7477 282.537 76.9043 282.286C77.0609 282.036 77.1183 281.736 77.0651 281.445C76.9687 281.169 76.7685 280.942 76.5069 280.811C76.2454 280.68 75.9433 280.656 75.6646 280.745" fill="white"/>
</g>
<g opacity="0.6">
<path opacity="0.6" d="M70.9168 290.241V287.932L97.52 288.956C97.52 288.956 98.7436 289.517 98.582 290.379L70.9168 290.241Z" fill="white"/>
</g>
<path d="M84.7609 281.969C84.7609 282.107 84.0759 282.153 83.3987 282.569C82.7215 282.984 82.3599 283.554 82.2368 283.492C82.1136 283.431 82.3291 282.661 83.1602 282.169C83.9913 281.676 84.7916 281.845 84.7609 281.969Z" fill="#263238"/>
<path d="M87.6387 283.238C87.6387 283.369 87.0769 283.584 86.5998 284.146C86.1227 284.708 85.9841 285.308 85.8302 285.3C85.6763 285.293 85.6225 284.531 86.2227 283.838C86.823 283.146 87.6387 283.107 87.6387 283.238Z" fill="#263238"/>
<path d="M89.2085 286.747C89.0853 286.747 88.916 286.093 89.2777 285.362C89.6394 284.631 90.2781 284.346 90.332 284.462C90.3859 284.577 89.9857 284.962 89.701 285.57C89.4162 286.178 89.347 286.739 89.2085 286.747Z" fill="#263238"/>
<path d="M84.5915 278.698C84.5299 278.821 83.9143 278.621 83.1447 278.659C82.3752 278.698 81.7826 278.921 81.7134 278.805C81.6441 278.69 82.229 278.213 83.1293 278.19C84.0297 278.167 84.6607 278.598 84.5915 278.698Z" fill="#263238"/>
<path d="M84.707 275.82C84.2484 275.938 83.7656 275.925 83.3142 275.781C82.816 275.685 82.3324 275.524 81.8751 275.304C81.6092 275.175 81.3521 275.029 81.1056 274.866C80.9483 274.778 80.8077 274.663 80.69 274.527C80.604 274.43 80.5527 274.307 80.5444 274.177C80.536 274.048 80.571 273.919 80.6438 273.811C80.7147 273.719 80.8056 273.644 80.9095 273.592C81.0135 273.54 81.1279 273.513 81.2441 273.511C81.4215 273.516 81.5974 273.545 81.7674 273.596C82.0606 273.676 82.3464 273.782 82.6216 273.911C83.0842 274.135 83.5099 274.428 83.8836 274.781C84.5069 275.389 84.7147 275.897 84.6532 275.928C84.5916 275.958 84.2915 275.535 83.6451 275.035C83.2725 274.74 82.8639 274.495 82.4292 274.304C82.1789 274.199 81.9218 274.112 81.6596 274.042C81.3672 273.958 81.1132 273.95 81.0363 274.081C80.9593 274.212 81.0363 274.15 81.0363 274.235C81.1233 274.331 81.2245 274.414 81.3364 274.481C81.5699 274.639 81.8113 274.786 82.0598 274.919C82.4858 275.14 82.9315 275.321 83.3911 275.458C83.837 275.551 84.2765 275.672 84.707 275.82Z" fill="#263238"/>
<path d="M84.5223 276.012C84.2675 275.611 84.1488 275.139 84.1837 274.665C84.1725 274.143 84.2479 273.623 84.4068 273.126C84.5034 272.837 84.6298 272.558 84.7839 272.295C84.8638 272.114 84.9883 271.956 85.1458 271.836C85.3033 271.717 85.4885 271.639 85.6843 271.61C85.807 271.617 85.9253 271.659 86.0259 271.729C86.1264 271.8 86.2053 271.897 86.2537 272.01C86.3188 272.176 86.3628 272.349 86.3846 272.526C86.435 272.834 86.435 273.149 86.3846 273.457C86.2972 273.976 86.0831 274.465 85.7612 274.881C85.2072 275.581 84.6377 275.735 84.63 275.65C84.6223 275.566 85.0609 275.327 85.4919 274.65C85.7354 274.256 85.8952 273.816 85.9613 273.357C85.9959 273.089 85.9959 272.817 85.9613 272.549C85.9228 272.257 85.8151 272.018 85.7074 272.041C85.5996 272.064 85.3303 272.257 85.2072 272.487C85.0661 272.733 84.9477 272.99 84.8532 273.257C84.6851 273.699 84.584 274.163 84.553 274.634C84.4376 275.481 84.5992 275.997 84.5223 276.012Z" fill="#263238"/>
<path d="M37.2028 267.639L36.1177 281.876C36.1177 281.876 50.2235 287.763 50.2773 290.41L22.5737 289.302L24.8054 267.108L37.2028 267.639Z" fill="#455A64"/>
<g opacity="0.6">
<path opacity="0.6" d="M27.6062 280.306C27.338 280.377 27.1051 280.544 26.9518 280.775C26.7986 281.007 26.7357 281.286 26.7751 281.561C26.8345 281.833 26.9962 282.072 27.2269 282.228C27.4575 282.384 27.7394 282.446 28.0141 282.4C28.3003 282.325 28.5486 282.147 28.7107 281.899C28.8728 281.652 28.9372 281.353 28.8913 281.061C28.7995 280.784 28.6036 280.554 28.3451 280.419C28.0866 280.284 27.7858 280.254 27.5062 280.337" fill="white"/>
</g>
<g opacity="0.6">
<path opacity="0.6" d="M22.5967 289.302L22.766 287.055L49.246 288.964C49.246 288.964 50.4542 289.549 50.2772 290.41L22.5967 289.302Z" fill="white"/>
</g>
<path d="M36.5714 281.753C36.5714 281.891 35.8866 281.922 35.2017 282.33C34.5168 282.738 34.1397 283.292 34.0166 283.238C33.8934 283.184 34.132 282.407 34.9631 281.922C35.7942 281.437 36.6099 281.63 36.5714 281.753Z" fill="#263238"/>
<path d="M39.4268 283.077C39.4268 283.208 38.8573 283.408 38.3802 283.962C37.903 284.516 37.7414 285.116 37.6106 285.108C37.4798 285.101 37.4182 284.339 38.0339 283.654C38.6495 282.969 39.4268 282.946 39.4268 283.077Z" fill="#263238"/>
<path d="M40.9348 286.616C40.8117 286.616 40.6501 285.954 41.0272 285.231C41.4043 284.508 42.0507 284.231 42.1045 284.346C42.1584 284.462 41.7506 284.846 41.4504 285.447C41.1503 286.047 41.0734 286.609 40.9348 286.616Z" fill="#263238"/>
<path d="M36.464 278.482C36.4024 278.606 35.7868 278.39 35.0172 278.413C34.2477 278.436 33.6475 278.652 33.5859 278.536C33.5243 278.421 34.1092 277.951 35.0095 277.944C35.9099 277.936 36.5332 278.382 36.464 278.482Z" fill="#263238"/>
<path d="M36.6255 275.604C36.1673 275.716 35.6868 275.695 35.2403 275.543C34.7447 275.435 34.2641 275.267 33.809 275.043C33.5418 274.91 33.2846 274.758 33.0394 274.589C32.8868 274.494 32.7493 274.378 32.6315 274.242C32.5504 274.139 32.5063 274.012 32.5063 273.881C32.5063 273.749 32.5504 273.622 32.6315 273.519C32.704 273.43 32.7955 273.358 32.8994 273.308C33.0032 273.259 33.1168 273.234 33.2318 273.234C33.4071 273.241 33.5807 273.272 33.7474 273.326C34.0411 273.412 34.3269 273.523 34.6016 273.657C35.061 273.888 35.4816 274.19 35.8482 274.55C36.4639 275.173 36.664 275.681 36.6178 275.704C36.5716 275.727 36.2561 275.312 35.6251 274.796C35.0417 274.316 34.362 273.967 33.632 273.773C33.3395 273.688 33.0856 273.673 33.0086 273.773C32.9317 273.873 33.0086 273.834 33.0086 273.927C33.0979 274.021 33.1987 274.104 33.3088 274.173C33.5384 274.338 33.7774 274.49 34.0244 274.627C34.445 274.854 34.8855 275.042 35.3404 275.189C35.7774 275.299 36.2067 275.438 36.6255 275.604Z" fill="#263238"/>
<path d="M36.4407 275.797C36.2015 275.388 36.0941 274.915 36.1329 274.442C36.1272 273.919 36.2104 273.399 36.3792 272.903C36.4814 272.616 36.6129 272.34 36.7716 272.08C36.8522 271.9 36.9784 271.744 37.1377 271.628C37.297 271.512 37.4838 271.44 37.6797 271.418C37.8027 271.425 37.9212 271.467 38.0208 271.539C38.1205 271.611 38.1971 271.711 38.2415 271.826C38.308 271.991 38.3495 272.164 38.3646 272.341C38.4024 272.652 38.3894 272.966 38.3261 273.273C38.2314 273.789 38.0091 274.273 37.6797 274.681C37.1102 275.373 36.5408 275.512 36.5331 275.45C36.5254 275.389 36.9717 275.143 37.4104 274.465C37.663 274.079 37.8309 273.644 37.9029 273.188C37.9414 272.92 37.9414 272.648 37.9029 272.38C37.9029 272.087 37.772 271.841 37.6566 271.872C37.5412 271.903 37.2795 272.072 37.1564 272.303C37.008 272.548 36.8818 272.805 36.7793 273.072C36.6092 273.512 36.5004 273.973 36.4561 274.442C36.3945 275.266 36.5177 275.774 36.4407 275.797Z" fill="#263238"/>
<path d="M60.0047 26.4486L62.7212 57.9615L78.5046 56.6994C78.6046 54.8602 78.5046 47.7265 78.5046 47.7265C78.5046 47.7265 85.0688 46.7107 85.1457 40.1465C85.1919 36.9529 84.7302 30.3656 84.2531 24.4324C83.9989 21.26 82.5104 18.3139 80.1072 16.2274C77.7041 14.1408 74.5783 13.0804 71.4016 13.274C69.7801 13.3677 68.1938 13.7858 66.7367 14.5036C65.2796 15.2213 63.9813 16.224 62.9186 17.4524C61.8559 18.6809 61.0505 20.11 60.55 21.6552C60.0495 23.2005 59.8641 24.8304 60.0047 26.4486Z" fill="#EB996E"/>
<path d="M78.4812 47.6344C75.4505 47.6922 72.4713 46.8456 69.9239 45.2026C69.9239 45.2026 71.9478 49.9276 78.4966 49.3351L78.4812 47.6344Z" fill="#D1734A"/>
<path d="M82.6675 29.8501C82.5597 29.9732 81.821 29.4884 80.8129 29.5346C79.8048 29.5807 79.0891 30.1348 78.9736 30.0117C78.8582 29.8885 79.0275 29.7346 79.3353 29.4884C79.7538 29.1675 80.2605 28.9822 80.7873 28.9574C81.3141 28.9327 81.8359 29.0696 82.2827 29.3499C82.6059 29.573 82.7213 29.7885 82.6675 29.8501Z" fill="#263238"/>
<path d="M73.4329 29.9885C73.3097 30.104 72.6171 29.5576 71.609 29.5345C70.6009 29.5114 69.8468 29.9885 69.739 29.8654C69.6313 29.7423 69.8083 29.5884 70.1392 29.3652C70.5842 29.0744 71.1086 28.9292 71.6398 28.9497C72.1645 28.964 72.6711 29.1445 73.0866 29.4653C73.3867 29.7115 73.4867 29.9347 73.4329 29.9885Z" fill="#263238"/>
<path d="M76.5648 36.0912C77.0958 35.9204 77.6469 35.8195 78.2039 35.7911C78.4656 35.7911 78.7041 35.7141 78.7503 35.5371C78.7743 35.2693 78.7152 35.0006 78.581 34.7676C78.3348 34.1417 78.0783 33.4876 77.8115 32.8052C77.1043 31.1425 76.5304 29.4261 76.0954 27.6724C76.9345 29.2756 77.6448 30.9431 78.2194 32.659C78.4733 33.3439 78.7118 33.998 78.9504 34.629C79.1069 34.9406 79.1531 35.296 79.0812 35.6372C79.0445 35.7283 78.9871 35.8098 78.9137 35.8752C78.8403 35.9406 78.7528 35.9882 78.658 36.0142C78.5153 36.0548 78.3677 36.0755 78.2194 36.0758C77.6703 36.1455 77.115 36.1507 76.5648 36.0912Z" fill="#263238"/>
<path d="M73.5947 36.7836C73.764 36.7836 73.764 37.8687 74.7028 38.6459C75.6417 39.4231 76.8037 39.3077 76.8114 39.4616C76.8191 39.6155 76.5497 39.6694 76.0418 39.6848C75.4004 39.6922 74.7768 39.4743 74.2796 39.0692C73.8084 38.6843 73.5027 38.1335 73.4254 37.5301C73.4023 37.0529 73.5254 36.7759 73.5947 36.7836Z" fill="#263238"/>
<path d="M73.1636 25.3178C73.0636 25.5948 72.0554 25.464 70.855 25.6102C69.6545 25.7564 68.7156 26.0719 68.5463 25.8257C68.4771 25.7103 68.6464 25.4486 69.0311 25.187C69.5447 24.8538 70.1304 24.648 70.7395 24.5867C71.3433 24.5144 71.9556 24.5883 72.5249 24.8022C72.9866 24.9792 73.2021 25.1947 73.1636 25.3178Z" fill="#263238"/>
<path d="M82.4445 25.7794C82.2367 26.0487 81.4441 25.7794 80.4821 25.7794C79.5202 25.7794 78.7045 25.9564 78.5198 25.687C78.4351 25.5485 78.566 25.2869 78.92 25.0406C79.3979 24.7434 79.9528 24.5937 80.5153 24.6101C81.0778 24.6265 81.6231 24.8084 82.0828 25.133C82.4214 25.3792 82.5368 25.6563 82.4445 25.7794Z" fill="#263238"/>
<path d="M67.1304 19.2534C66.0814 20.0761 65.3919 21.2731 65.2065 22.5932V22.724C64.9449 24.594 64.9987 26.5025 64.7217 28.3725C64.5431 30.2696 63.7297 32.0509 62.4131 33.4284C61.8436 33.9594 60.874 34.3287 60.3738 33.7054C60.2128 33.4471 60.1299 33.1478 60.1352 32.8435C59.7889 28.3263 58.5499 24.317 58.5961 19.5843C58.5938 18.9515 58.7427 18.3273 59.0305 17.7638C59.3183 17.2002 59.7367 16.7136 60.2506 16.3445C61.2357 15.6288 62.4438 14.8977 63.5443 15.4133C64.6447 15.9289 66.0684 17.999 66.9226 18.8686" fill="#263238"/>
<path d="M62.2205 29.4342C62.1051 29.3881 57.711 28.1029 57.8495 32.5894C57.988 37.0758 62.4668 36.0138 62.4668 35.883C62.4668 35.7522 62.2205 29.4342 62.2205 29.4342Z" fill="#EB996E"/>
<path d="M61.0509 34.2059C61.0509 34.2059 60.9739 34.2675 60.8431 34.329C60.6558 34.406 60.4456 34.406 60.2582 34.329C59.962 34.1544 59.7175 33.9042 59.5499 33.604C59.3822 33.3038 59.2973 32.9644 59.304 32.6206C59.2836 32.2372 59.3466 31.8538 59.4887 31.4971C59.5265 31.356 59.5982 31.2262 59.6974 31.1189C59.7966 31.0117 59.9204 30.9302 60.0582 30.8815C60.1474 30.8534 60.2438 30.8581 60.3298 30.8948C60.4159 30.9315 60.486 30.9977 60.5276 31.0815C60.5892 31.2047 60.5661 31.2893 60.5892 31.297C60.6123 31.3047 60.6815 31.2201 60.643 31.0354C60.6127 30.9256 60.548 30.8285 60.4583 30.7583C60.3306 30.6694 60.1733 30.6335 60.0197 30.6583C59.8414 30.7053 59.6776 30.7961 59.5432 30.9224C59.4088 31.0487 59.3081 31.2066 59.2501 31.3817C59.0687 31.7764 58.9893 32.2103 59.0193 32.6437C59.0101 33.0435 59.1191 33.4372 59.3326 33.7753C59.5462 34.1134 59.8548 34.381 60.2198 34.5445C60.342 34.5741 60.4692 34.577 60.5927 34.5531C60.7162 34.5292 60.8331 34.479 60.9354 34.406C61.0432 34.3213 61.0663 34.2136 61.0509 34.2059Z" fill="#D1734A"/>
<path d="M63.3134 16.1445C62.213 14.3437 65.2373 11.7658 67.4536 11.0732C69.6699 10.3806 72.5864 11.4503 74.795 12.1813C76.1802 12.643 77.5731 13.2895 79.0352 13.2279C80.0146 13.1273 80.9739 12.8836 81.8825 12.5045C82.7897 12.1184 83.7671 11.9245 84.7529 11.9351C85.2457 11.9481 85.7256 12.0945 86.1416 12.3588C86.5577 12.623 86.8943 12.9952 87.1155 13.4357C87.212 13.6605 87.2586 13.9036 87.2521 14.1482C87.2456 14.3928 87.1862 14.633 87.078 14.8524C86.9698 15.0719 86.8152 15.2652 86.6251 15.4192C86.4349 15.5731 86.2137 15.6841 85.9765 15.7443C86.2882 15.5749 86.6362 15.4833 86.9908 15.4774C87.3455 15.4715 87.6963 15.5514 88.0135 15.7102C88.3306 15.8691 88.6047 16.1023 88.8122 16.3899C89.0198 16.6776 89.1548 17.0111 89.2057 17.3621C89.2566 17.7132 89.222 18.0713 89.1046 18.4061C88.9873 18.7408 88.7907 19.0422 88.5318 19.2847C88.2728 19.5271 87.9591 19.7033 87.6174 19.7984C87.2757 19.8935 86.916 19.9045 86.5691 19.8306C87.2078 19.3458 88.1851 20.1461 88.1082 20.9464C88.022 21.3394 87.8347 21.7031 87.5648 22.0014C87.2948 22.2998 86.9516 22.5223 86.5691 22.6471C84.6991 23.4628 82.5136 23.2012 80.5743 22.5548C78.6351 21.9084 76.842 20.8849 74.9259 20.1846C73.0097 19.4843 69.7853 18.2299 67.8614 18.9071C66.4378 19.4073 65.4528 21.1157 64.6524 20.7387C64.2736 20.5379 63.9473 20.2508 63.6999 19.9005C63.4526 19.5502 63.2912 19.1467 63.2288 18.7224C63.1223 17.8717 63.1508 17.0094 63.3134 16.1676" fill="#263238"/>
<path d="M86.5229 15.5829C86.5229 15.5829 86.2921 15.9138 85.8073 16.4447C85.1146 17.1682 84.2601 17.7168 83.314 18.0454C81.9273 18.5525 80.3972 18.4973 79.0507 17.8915C77.5116 17.2066 76.2187 15.8368 74.7104 14.544C73.3202 13.2371 71.5594 12.393 69.6699 12.1276C68.8883 12.0313 68.095 12.1151 67.3507 12.3725C66.6065 12.6299 65.931 13.0542 65.3759 13.6128C65.0185 14.0022 64.7442 14.4602 64.5696 14.9589C64.3949 15.4577 64.3237 15.9868 64.3601 16.514C64.3833 16.7965 64.4481 17.0739 64.5525 17.3374C64.6294 17.5144 64.6833 17.5991 64.6987 17.5914C64.6121 17.235 64.5555 16.8721 64.5294 16.5063C64.5273 15.5076 64.9137 14.5473 65.6067 13.8283C66.133 13.3235 66.7654 12.9427 67.4578 12.7137C68.1501 12.4846 68.8849 12.4133 69.6084 12.5047C71.4191 12.7946 73.1005 13.6232 74.4334 14.8826C75.9109 16.1446 77.2576 17.5529 78.8891 18.2609C79.6043 18.5778 80.3755 18.7492 81.1576 18.765C81.9398 18.7809 82.7173 18.6409 83.4448 18.3532C84.4258 17.9895 85.2938 17.3737 85.9612 16.5679C86.1407 16.3507 86.2979 16.1161 86.4306 15.8676C86.4748 15.7776 86.5059 15.6817 86.5229 15.5829Z" fill="#455A64"/>
<path d="M61.0737 29.2268C61.0737 29.2268 61.2661 29.1036 61.4354 28.7496C61.6628 28.238 61.7402 27.6722 61.6586 27.1182C61.5662 25.6715 60.2811 24.1247 60.1195 22.1239C59.9911 21.1999 60.1524 20.2589 60.5812 19.4304C60.9622 18.7783 61.5499 18.2719 62.2511 17.9914C62.7213 17.79 63.2367 17.7183 63.744 17.7836C64.1057 17.8452 64.2981 17.9298 64.3135 17.8914C64.3289 17.8529 64.1596 17.7298 63.7825 17.6143C63.2379 17.4779 62.6652 17.5047 62.1357 17.6913C61.3419 17.9704 60.6682 18.5138 60.2272 19.2304C59.7248 20.1176 59.5198 21.1424 59.6424 22.1546C59.7555 23.1431 60.0476 24.1027 60.5042 24.9866C60.8717 25.6695 61.1436 26.3997 61.3123 27.1567C61.4513 27.8547 61.3678 28.5787 61.0737 29.2268Z" fill="#455A64"/>
<path d="M47.5378 128.198L21.7426 278.275L42.0817 280.753L70.9627 146.875L68.554 278.821H88.0312L95.7344 126.882L47.5378 128.198Z" fill="#263238"/>
<path d="M93.8259 80.4324L101.098 84.9496L109.348 69.097C105.723 66.4805 94.103 59.0006 91.1556 57.0767C90.4266 56.588 89.6537 56.1681 88.847 55.8223C86.8858 55.0549 84.8309 54.5529 82.7368 54.3294C80.8745 54.0755 79.4585 53.9523 78.5428 53.8369C73.2419 55.5146 67.5524 55.5146 62.2515 53.8369C61.6128 53.8369 60.9895 53.9139 60.3892 53.9831C55.0024 54.7527 49.7772 58.5311 46.5374 62.0403L33.7014 73.5834L46.2911 88.6357L50.185 84.0185L49.2693 105.281L45.5524 131.723H95.8422C95.8422 131.723 95.9499 125.489 95.4958 116.824C94.8494 104.635 94.2107 85.6807 94.2107 85.6807" fill="#80B51C"/>
<path d="M94.3185 93.7994C94.1289 92.6413 94.0209 91.4712 93.9953 90.298C93.8491 88.1432 93.6567 85.1574 93.3873 81.833C93.118 78.5085 92.8179 75.5689 92.6178 73.4141C92.4468 72.2575 92.3619 71.0897 92.3638 69.9204C92.6815 71.0481 92.8979 72.2018 93.0103 73.368C93.3258 75.515 93.6798 78.4931 93.9568 81.7868C94.2338 85.0804 94.357 88.0817 94.4031 90.2518C94.4801 91.4345 94.4517 92.6217 94.3185 93.7994Z" fill="#263238"/>
<path d="M51.1006 72.8218C51.2386 73.6168 51.28 74.4255 51.2237 75.2304C51.2237 76.7157 51.1314 78.7704 50.9698 81.0328C50.8082 83.2953 50.5773 85.3346 50.3618 86.8044C50.308 87.6102 50.1449 88.405 49.877 89.1669C49.8265 88.3655 49.8575 87.5611 49.9694 86.7659C50.1002 85.0652 50.2464 83.126 50.408 80.9866C50.5696 78.8473 50.7004 76.9081 50.8312 75.2151C50.8313 74.4097 50.9216 73.607 51.1006 72.8218Z" fill="#263238"/>
<path d="M47.3759 61.4398C48.0255 61.2483 48.6995 61.1524 49.3768 61.155C51.2284 61.266 53.0072 61.916 54.4942 63.025C55.4715 63.6714 56.472 64.4795 57.5724 65.2952C58.7749 66.1672 60.0643 66.9124 61.4201 67.5192C62.9359 68.1628 64.5178 68.6376 66.1374 68.9351C67.8806 69.2302 69.652 69.3231 71.4165 69.2122C73.1817 69.107 74.9267 68.7813 76.6109 68.2425C77.4119 67.9891 78.1981 67.691 78.9658 67.3499C79.6961 67.0135 80.4054 66.6332 81.0897 66.2109C83.8216 64.6026 85.6377 62.3632 87.5539 61.0396C89.0089 59.8897 90.8257 59.295 92.679 59.362C93.3533 59.4375 94.0109 59.622 94.626 59.9084L94.5105 59.8314C94.4011 59.7548 94.2853 59.6879 94.1643 59.6313C93.7028 59.4056 93.2053 59.2623 92.6944 59.2081C90.7922 59.0768 88.9072 59.6431 87.3923 60.801C85.4145 62.14 83.583 64.3486 80.905 65.8954C80.228 66.3074 79.5264 66.6775 78.8041 67.0036C78.0506 67.3322 77.28 67.6199 76.4955 67.8655C74.8403 68.3898 73.1266 68.7078 71.3934 68.812C69.6627 68.9201 67.9254 68.8323 66.2144 68.5504C64.6309 68.2594 63.0831 67.8002 61.5971 67.1806C60.2566 66.5953 58.9801 65.8732 57.7879 65.0258C56.6643 64.2563 55.6485 63.4252 54.6481 62.7865C53.1105 61.6748 51.2734 61.0526 49.3768 61.0011C48.8549 60.9984 48.3358 61.0763 47.8377 61.232C47.7114 61.2694 47.588 61.3157 47.4683 61.3705C47.4144 61.409 47.3759 61.4321 47.3759 61.4398Z" fill="#FAFAFA"/>
<path d="M93.7491 77.6235C93.8106 77.6235 94.3031 76.9617 95.2882 76.0844C95.8812 75.5558 96.5228 75.0843 97.2043 74.6761C98.0479 74.1889 98.9403 73.7917 99.8669 73.491C100.797 73.2055 101.753 73.0172 102.722 72.9293C103.517 72.8669 104.315 72.8798 105.108 72.9677C106.454 73.1293 107.262 73.4218 107.285 73.3448C107.308 73.2679 107.101 73.2294 106.739 73.0986C106.223 72.9086 105.69 72.772 105.146 72.6907C104.337 72.5604 103.517 72.5165 102.699 72.5599C101.697 72.6312 100.705 72.8145 99.7438 73.1063C98.7907 73.4186 97.8766 73.8395 97.0196 74.3606C96.3206 74.8003 95.6727 75.3165 95.0881 75.8997C94.8626 76.1164 94.6518 76.3477 94.457 76.5923C94.294 76.7658 94.1472 76.9538 94.0184 77.1541C93.8337 77.4234 93.726 77.6004 93.7491 77.6235Z" fill="#FAFAFA"/>
<path d="M51.27 85.0341C51.3888 85.1258 51.5179 85.2033 51.6548 85.2649L52.8014 85.8652L53.6402 86.2961C53.9557 86.4423 54.302 86.5732 54.6714 86.7348C55.441 87.0349 56.2105 87.4197 57.2032 87.7198L58.7423 88.22C59.2656 88.3893 59.8274 88.5124 60.3968 88.674C61.5358 89.0049 62.7901 89.2127 64.106 89.4436C66.9697 89.883 69.8675 90.0608 72.7634 89.9746C75.6595 89.8393 78.5369 89.4375 81.3592 88.7741C82.6521 88.4201 83.8833 88.1046 84.9915 87.6813C85.5533 87.4812 86.0996 87.3196 86.6075 87.1042L88.0697 86.4808C89.0085 86.1114 89.8011 85.6574 90.5168 85.2957C90.8708 85.111 91.2094 84.9494 91.5018 84.7801L92.2714 84.2876L93.3718 83.595C93.5064 83.5221 93.6306 83.4315 93.7412 83.3257C93.5969 83.3797 93.4579 83.4467 93.3257 83.5258L92.1944 84.1491L91.3787 84.6108C91.0786 84.7724 90.74 84.9186 90.386 85.0956C89.6626 85.4342 88.8469 85.8652 87.9235 86.2192L86.469 86.8194C85.9611 87.0195 85.4147 87.1734 84.853 87.3735C83.7448 87.7736 82.5443 88.0738 81.2438 88.4124C75.6392 89.7619 69.8237 89.9946 64.1291 89.0973C62.8286 88.8587 61.5819 88.6663 60.4507 88.3277C59.8812 88.1738 59.3195 88.0661 58.7962 87.9045L57.2956 87.4274C56.3336 87.1503 55.5025 86.7809 54.7561 86.5039C54.3867 86.3577 54.0327 86.2346 53.7172 86.0961L52.8707 85.7036L51.6933 85.1726C51.5601 85.1051 51.4174 85.0584 51.27 85.0341Z" fill="#FAFAFA"/>
<path d="M37.495 72.0827C38.272 71.9644 39.0563 71.9002 39.8421 71.8903C41.7297 71.9806 43.5662 72.5328 45.1905 73.4987C46.8116 74.4863 48.3165 75.6531 49.6769 76.977C50.2292 77.5466 50.8234 78.0739 51.4546 78.5546C50.9876 77.9123 50.4592 77.317 49.877 76.7769C48.553 75.3707 47.0437 74.1513 45.3906 73.1524C43.7136 72.1487 41.7965 71.6169 39.8421 71.6133C39.2546 71.618 38.6701 71.6982 38.103 71.8518C37.8878 71.8904 37.6816 71.9687 37.495 72.0827Z" fill="#FAFAFA"/>
<path d="M50.2543 101.248C50.3853 101.332 50.5246 101.401 50.6699 101.456L51.8857 102.003C52.409 102.241 53.0631 102.518 53.8404 102.772C54.6176 103.026 55.4795 103.395 56.4722 103.68L58.0113 104.15C58.5577 104.311 59.1272 104.427 59.7197 104.581C60.8971 104.896 62.1746 105.119 63.5213 105.35C69.3745 106.352 75.351 106.404 81.2208 105.504C82.5675 105.265 83.8526 105.065 85.0685 104.734C85.6611 104.588 86.2382 104.48 86.7769 104.327L88.316 103.88C89.3164 103.619 90.1937 103.28 90.9709 103.018C91.7482 102.757 92.41 102.495 92.9409 102.249L94.1645 101.733C94.3088 101.676 94.4478 101.607 94.5801 101.525C94.426 101.548 94.2758 101.592 94.1338 101.656L92.8794 102.11C92.3407 102.31 91.6866 102.557 90.9017 102.795C90.1167 103.034 89.2394 103.349 88.239 103.565L86.6999 103.98C86.1536 104.119 85.5764 104.227 84.9916 104.357C83.8142 104.642 82.529 104.827 81.19 105.05C75.3459 105.91 69.4041 105.86 63.5751 104.904C62.2361 104.657 60.9587 104.45 59.789 104.134C59.2041 103.988 58.627 103.88 58.0883 103.726L56.5492 103.28C55.5565 103.018 54.6792 102.687 53.902 102.433C53.1247 102.18 52.4706 101.933 51.9319 101.718L50.6929 101.248C50.5474 101.228 50.3998 101.228 50.2543 101.248Z" fill="#FAFAFA"/>
<path d="M47.3607 121.441C47.5241 121.463 47.6898 121.463 47.8532 121.441L49.2384 121.264C50.4389 121.095 52.1857 120.887 54.3482 120.664C56.5106 120.441 59.0886 120.241 61.9513 120.095C64.814 119.948 67.9768 119.91 71.2858 119.979C74.5949 120.048 77.75 120.256 80.605 120.51C83.46 120.764 86.0303 121.087 88.1773 121.41C90.3244 121.734 92.0635 122.018 93.2563 122.242L94.6338 122.472C94.7934 122.507 94.9556 122.527 95.1187 122.534C94.969 122.467 94.8111 122.421 94.6492 122.395L93.2871 122.088C92.102 121.818 90.3706 121.487 88.2235 121.133C86.0765 120.779 83.5062 120.433 80.6435 120.141C77.7808 119.848 74.618 119.656 71.2935 119.579C67.9691 119.502 64.8063 119.579 61.9359 119.725C59.0655 119.871 56.4798 120.118 54.3174 120.387C52.1549 120.656 50.4158 120.895 49.2153 121.11L47.8378 121.364C47.6772 121.379 47.5178 121.405 47.3607 121.441Z" fill="#FAFAFA"/>
<path d="M156.806 143.334L106.046 172.646V141.795L156.806 112.491V143.334Z" fill="#80B51C"/>
<path d="M156.806 143.334L106.046 172.646V141.795L156.806 112.491V143.334Z" fill="#00BBC7"/>
<path d="M55.2871 143.334L106.046 172.646V141.795L55.2871 112.491V143.334Z" fill="#80B51C"/>
<path d="M55.2871 143.334L106.046 172.646V141.795L55.2871 112.491V143.334Z" fill="#00909A"/>
<path d="M156.805 112.491L106.046 83.1865L55.2871 112.491L106.046 141.795L156.805 112.491Z" fill="#80B51C"/>
<path opacity="0.9" d="M156.805 112.491L106.046 83.1865L55.2871 112.491L106.046 141.795L156.805 112.491Z" fill="#00C9D6"/>
<path d="M118.698 94.8066C118.698 92.9366 117.466 91.0666 114.988 89.643C110.048 86.788 102.037 86.788 97.0965 89.643C94.6263 91.0666 93.395 92.9366 93.395 94.8066V99.824C93.395 101.694 94.6263 103.556 97.0965 104.988C102.037 107.835 110.048 107.843 114.988 104.988C117.466 103.556 118.698 101.686 118.698 99.824V94.8066Z" fill="#80B51C"/>
<path opacity="0.8" d="M114.988 89.643C117.459 91.0667 118.698 92.9367 118.698 94.8067V99.8241C118.698 101.694 117.466 103.556 114.988 104.988C112.239 106.451 109.161 107.187 106.046 107.127V87.5114C109.16 87.4457 112.239 88.1796 114.988 89.643Z" fill="#00BBC7"/>
<path opacity="0.8" d="M97.0965 89.643C94.6263 91.0667 93.395 92.9367 93.395 94.8067V99.8241C93.395 101.694 94.6263 103.556 97.0965 104.988C99.8492 106.451 102.93 107.187 106.046 107.127V87.5114C102.93 87.4458 99.8487 88.1796 97.0965 89.643Z" fill="#00909A"/>
<path opacity="0.8" d="M97.0965 89.643C92.156 92.4903 92.156 97.1153 97.0965 99.9703C102.037 102.825 110.048 102.825 114.988 99.9703C119.929 97.1153 119.937 92.4903 114.988 89.643C110.04 86.7957 102.037 86.788 97.0965 89.643Z" fill="#00C9D6"/>
<path d="M118.698 123.387C118.698 121.517 117.466 119.655 114.988 118.224C110.048 115.369 102.037 115.369 97.0965 118.224C94.6263 119.647 93.395 121.517 93.395 123.387V128.382C93.395 130.252 94.6263 132.122 97.0965 133.545C102.037 136.4 110.048 136.4 114.988 133.545C117.466 132.122 118.698 130.252 118.698 128.382V123.387Z" fill="#80B51C"/>
<path opacity="0.8" d="M114.988 118.224C117.459 119.648 118.698 121.518 118.698 123.388V128.382C118.698 130.252 117.466 132.122 114.988 133.546C112.24 135.012 109.161 135.749 106.046 135.685V116.085C109.161 116.025 112.239 116.761 114.988 118.224Z" fill="#00BBC7"/>
<path opacity="0.8" d="M97.0965 118.224C94.6263 119.648 93.395 121.518 93.395 123.388V128.382C93.395 130.252 94.6263 132.122 97.0965 133.546C99.8479 135.012 102.929 135.749 106.046 135.685V116.085C102.93 116.025 99.8492 116.761 97.0965 118.224Z" fill="#00909A"/>
<path opacity="0.8" d="M97.0965 118.224C92.156 121.079 92.156 125.704 97.0965 128.559C102.037 131.414 110.048 131.406 114.988 128.559C119.929 125.711 119.937 121.079 114.988 118.224C110.04 115.369 102.037 115.369 97.0965 118.224Z" fill="#00C9D6"/>
<path d="M93.9491 109.059C93.9491 107.189 92.7178 105.319 90.2476 103.895C85.2994 101.04 77.2885 101.04 72.348 103.895C69.8778 105.319 68.6465 107.189 68.6465 109.059V114.053C68.6465 115.923 69.8778 117.793 72.348 119.217C77.2885 122.072 85.2994 122.072 90.2476 119.217C92.7178 117.793 93.9491 115.923 93.9491 114.053V109.059Z" fill="#80B51C"/>
<path opacity="0.8" d="M90.2477 103.926C92.7179 105.349 93.9492 107.219 93.9492 109.089V114.084C93.9492 115.954 92.7179 117.824 90.2477 119.247C87.4935 120.705 84.4132 121.436 81.2979 121.371V101.786C84.4144 101.728 87.4946 102.464 90.2477 103.926Z" fill="#00BBC7"/>
<path opacity="0.8" d="M72.3172 103.926C69.847 105.349 68.6157 107.219 68.6157 109.089V114.084C68.6157 115.954 69.847 117.824 72.3172 119.247C75.0805 120.71 78.1721 121.441 81.2978 121.371V101.786C78.1708 101.721 75.0791 102.458 72.3172 103.926Z" fill="#00909A"/>
<path opacity="0.8" d="M72.3172 103.926C67.3767 106.781 67.3767 111.406 72.3172 114.253C77.2577 117.1 85.2686 117.108 90.2168 114.253C95.165 111.398 95.1573 106.781 90.2168 103.926C85.2763 101.071 77.2884 101.071 72.3172 103.926Z" fill="#00C9D6"/>
<path d="M143.446 109.097C143.446 107.227 142.207 105.357 139.737 103.933C134.797 101.078 126.786 101.078 121.845 103.933C119.375 105.357 118.136 107.227 118.144 109.097V114.091C118.144 115.961 119.375 117.831 121.845 119.255C126.786 122.11 134.797 122.11 139.737 119.255C142.207 117.831 143.446 115.961 143.446 114.091V109.097Z" fill="#80B51C"/>
<path opacity="0.8" d="M139.737 103.933C142.207 105.357 143.446 107.227 143.446 109.097V114.091C143.446 115.961 142.207 117.831 139.737 119.255C136.988 120.711 133.913 121.44 130.803 121.371V101.794C133.914 101.737 136.989 102.473 139.737 103.933Z" fill="#00BBC7"/>
<path opacity="0.8" d="M121.845 103.934C119.375 105.357 118.136 107.227 118.144 109.097V114.092C118.144 115.962 119.375 117.832 121.845 119.255C124.601 120.715 127.685 121.444 130.803 121.372V101.794C127.683 101.733 124.6 102.47 121.845 103.934Z" fill="#00909A"/>
<path opacity="0.8" d="M121.845 103.933C116.905 106.788 116.905 111.413 121.845 114.268C126.785 117.123 134.796 117.116 139.737 114.268C144.677 111.421 144.677 106.788 139.737 103.933C134.796 101.078 126.785 101.078 121.845 103.933Z" fill="#00C9D6"/>
<path d="M50.9624 114.838C48.0243 110.794 40.8561 93.1034 40.4136 91.8291C40.4136 91.8291 41.9105 89.2694 43.892 85.8801L34.5231 74.7217C32.1331 79.4371 29.6075 84.4729 27.8207 88.3689C26.5906 91.0503 25.0153 93.4928 33.0419 104.272C35.8472 108.095 38.3163 112.387 42.9269 118.484C44.7588 120.909 46.5641 123.794 48.0597 125.661C53.2544 132.139 55.9535 134.033 60.1571 133.148C65.7146 131.935 65.2545 129.086 61.7146 126.369C59.8153 124.852 58.0207 123.208 56.3429 121.449C57.8388 121.853 59.362 122.149 60.9005 122.334C61.3904 122.363 61.8732 122.206 62.2523 121.894C62.6313 121.582 62.8787 121.139 62.9447 120.652C62.9624 120.227 61.9093 120.281 60.3695 119.52C58.4403 118.546 55.4491 116.714 53.1305 116.219C52.2632 116.039 51.4918 115.548 50.9624 114.838Z" fill="#EB996E"/>
<path d="M64.0127 83.1844C62.6007 83.1844 61.1887 83.1844 59.7767 83.1844C58.0282 83.1844 56.3919 82.1038 55.7089 80.498C55.1328 79.1472 55.1328 77.7913 55.7955 76.4863C56.6264 74.8653 57.9823 73.9885 59.8174 73.9681C62.5956 73.9427 65.3788 73.9529 68.162 73.963C70.2112 73.9681 72.0158 75.37 72.5051 77.358C72.9588 79.188 72.5 80.7784 71.1135 82.063C70.3132 82.8021 69.3447 83.1793 68.2487 83.1844C66.8367 83.1895 65.4247 83.1844 64.0127 83.1844ZM63.9872 81.7724C65.4043 81.7724 66.8265 81.7724 68.2436 81.7724C68.4271 81.7724 68.6106 81.752 68.789 81.7112C69.8238 81.4717 70.563 80.86 71.0115 79.9016C71.557 78.7292 71.2919 77.256 70.3896 76.3334C69.7474 75.6758 68.9624 75.37 68.055 75.37C65.3941 75.37 62.7332 75.37 60.0774 75.37C59.9092 75.37 59.7359 75.3751 59.5677 75.3903C58.3341 75.5178 57.4573 76.1601 56.9679 77.2713C56.0147 79.4174 57.5898 81.803 59.8939 81.7724C61.2498 81.7622 62.6211 81.7724 63.9872 81.7724Z" fill="white"/>
<path d="M68.5748 80.8755C68.3148 80.8857 68.1313 80.7633 67.9784 80.5645C67.4788 79.8968 66.9742 79.229 66.4746 78.5612C66.3013 78.3318 66.2656 78.3318 66.0821 78.5459C65.5673 79.1627 65.0524 79.7795 64.5376 80.3912C64.2623 80.7175 63.7678 80.7226 63.4875 80.3963C62.9777 79.7999 62.4782 79.1984 61.9735 78.5969C61.739 78.3114 61.7289 78.3114 61.5097 78.5969C61.0101 79.2443 60.5156 79.8917 60.0212 80.5391C59.7459 80.901 59.3024 80.9927 58.9915 80.7531C58.6551 80.4983 58.5939 80.0395 58.8692 79.6725C59.3432 79.0404 59.8326 78.4185 60.3117 77.7915C60.5819 77.4398 60.8521 77.088 61.1222 76.7414C61.4281 76.3438 61.9124 76.3081 62.2437 76.6904C62.728 77.2461 63.1969 77.8221 63.671 78.3879C64.0125 78.7957 64.0023 78.8059 64.3388 78.393C64.7873 77.8476 65.241 77.3021 65.6998 76.7618C66.0923 76.2979 66.5766 76.3081 66.9385 76.7924C67.6521 77.7405 68.3658 78.6938 69.0794 79.6419C69.2477 79.8611 69.319 80.0956 69.2375 80.3708C69.1508 80.692 68.9061 80.8755 68.5748 80.8755Z" fill="white"/>
<path d="M67.1088 283.318C62.9429 285.354 58.3142 286.256 53.6889 285.933C45.6872 285.486 43.0723 281.049 43.0723 281.049C43.0723 281.049 47.6817 274.445 52.4953 273.361C52.4953 273.361 44.7135 273.275 37.8739 275.969C37.8739 275.969 33.1624 275.026 32.8012 267.401C32.8012 267.401 36.539 263.664 46.441 263.35C46.441 263.35 41.0385 260.68 32.3458 260.994C31.6783 261.104 31.0501 251.21 31.1836 246.734C31.3171 242.258 33.0368 242.682 36.5861 242.509C40.1355 242.336 51.6786 244.237 53.3826 246.537C55.0866 248.838 54.7882 255.371 54.7882 255.371C56.5612 253.05 57.8072 250.37 58.4397 247.519C58.4397 247.519 60.6933 247.197 65.3263 249.875C73.862 254.798 74.5137 260.546 74.6001 264.912C74.7179 269.757 73.2338 278.788 67.1088 283.318Z" fill="#80B51C"/>
<path d="M67.0147 283.758C66.934 283.739 66.8601 283.698 66.8007 283.64C66.7413 283.582 66.6986 283.509 66.677 283.429C63.2298 269.098 43.2608 249.011 35.267 245.603C35.2128 245.58 35.1638 245.546 35.1226 245.504C35.0815 245.462 35.0491 245.412 35.0272 245.357C35.0053 245.303 34.9944 245.244 34.9952 245.185C34.9959 245.126 35.0082 245.068 35.0314 245.014C35.0546 244.96 35.0882 244.911 35.1304 244.87C35.1725 244.829 35.2224 244.796 35.2771 244.774C35.3318 244.752 35.3902 244.742 35.4491 244.742C35.508 244.743 35.5662 244.755 35.6203 244.778C43.7634 248.249 64.0464 268.666 67.5408 283.209C67.556 283.265 67.5596 283.324 67.5515 283.381C67.5435 283.439 67.5238 283.494 67.4937 283.544C67.4636 283.594 67.4238 283.637 67.3765 283.672C67.3293 283.706 67.2757 283.73 67.2188 283.743C67.1537 283.767 67.0828 283.773 67.0147 283.758Z" fill="white"/>
<path d="M269.96 236.09L218.165 265.993V234.52L269.96 204.61V236.09Z" fill="#80B51C"/>
<path d="M166.37 236.09L218.165 265.993V234.52L166.37 204.61V236.09Z" fill="#263238"/>
<path d="M269.96 204.61L218.165 174.708L166.37 204.61L218.165 234.52L269.96 204.61Z" fill="black"/>
<path d="M227.274 210.468C229.795 211.921 231.051 213.829 231.051 215.737V220.841C231.051 222.749 229.795 224.657 227.274 226.11C224.465 227.603 221.322 228.354 218.142 228.293V208.277C221.323 208.215 224.467 208.969 227.274 210.468Z" fill="#37474F"/>
<path d="M209.033 210.468C206.512 211.921 205.256 213.829 205.256 215.737V220.841C205.256 222.749 206.512 224.657 209.033 226.11C211.842 227.603 214.985 228.354 218.165 228.293V208.277C214.984 208.215 211.84 208.969 209.033 210.468Z" fill="#263238"/>
<path d="M209.033 210.468C203.992 213.373 203.992 218.092 209.033 221.006C214.074 223.919 222.249 223.919 227.298 221.006C232.347 218.092 232.339 213.373 227.298 210.468C222.257 207.562 214.074 207.554 209.033 210.468Z" fill="#455A64"/>
<path opacity="0.07" d="M209.033 210.468C203.992 213.373 203.992 218.092 209.033 221.006C214.074 223.919 222.249 223.919 227.298 221.006C232.347 218.092 232.339 213.373 227.298 210.468C222.257 207.562 214.074 207.554 209.033 210.468Z" fill="white"/>
<path d="M227.274 181.296C229.795 182.748 231.051 184.656 231.051 186.565V191.661C231.051 193.569 229.795 195.477 227.274 196.93C224.467 198.426 221.322 199.178 218.142 199.113V179.113C221.322 179.052 224.465 179.803 227.274 181.296Z" fill="#37474F"/>
<path d="M209.033 181.296C206.512 182.748 205.256 184.656 205.256 186.565V191.661C205.256 193.569 206.512 195.477 209.033 196.93C211.84 198.426 214.985 199.178 218.165 199.113V179.113C214.985 179.052 211.842 179.803 209.033 181.296Z" fill="#263238"/>
<path d="M209.033 181.295C203.992 184.209 203.992 188.928 209.033 191.841C214.074 194.755 222.249 194.747 227.298 191.841C232.347 188.936 232.339 184.209 227.298 181.295C222.257 178.382 214.074 178.382 209.033 181.295Z" fill="#455A64"/>
<path opacity="0.07" d="M209.033 181.295C203.992 184.209 203.992 188.928 209.033 191.841C214.074 194.755 222.249 194.747 227.298 191.841C232.347 188.936 232.339 184.209 227.298 181.295C222.257 178.382 214.074 178.382 209.033 181.295Z" fill="white"/>
<path d="M252.544 195.886C255.064 197.338 256.328 199.246 256.328 201.155V206.251C256.328 208.159 255.064 210.067 252.544 211.52C249.737 213.013 246.597 213.764 243.419 213.703V193.703C246.597 193.638 249.739 194.389 252.544 195.886Z" fill="#37474F"/>
<path d="M234.286 195.886C231.766 197.338 230.509 199.246 230.509 201.155V206.251C230.509 208.159 231.766 210.067 234.286 211.52C237.095 213.013 240.239 213.764 243.419 213.703V193.703C240.238 193.638 237.094 194.389 234.286 195.886Z" fill="#263238"/>
<path d="M234.286 195.886C229.245 198.791 229.245 203.51 234.286 206.424C239.328 209.337 247.502 209.337 252.543 206.424C257.585 203.51 257.593 198.791 252.543 195.886C247.494 192.98 239.328 192.972 234.286 195.886Z" fill="#455A64"/>
<path opacity="0.07" d="M234.286 195.886C229.245 198.791 229.245 203.51 234.286 206.424C239.328 209.337 247.502 209.337 252.543 206.424C257.585 203.51 257.593 198.791 252.543 195.886C247.494 192.98 239.328 192.972 234.286 195.886Z" fill="white"/>
<path d="M202.044 195.87C204.565 197.331 205.821 199.239 205.821 201.147V206.243C205.821 208.144 204.565 210.052 202.044 211.512C199.235 213.005 196.092 213.756 192.912 213.695V193.687C196.092 193.626 199.235 194.377 202.044 195.87Z" fill="#37474F"/>
<path d="M183.779 195.87C181.258 197.331 180.002 199.239 180.002 201.147V206.243C180.002 208.144 181.258 210.052 183.779 211.512C186.588 213.005 189.731 213.756 192.911 213.695V193.687C189.731 193.626 186.588 194.377 183.779 195.87Z" fill="#263238"/>
<path d="M183.779 195.87C178.738 198.783 178.738 203.502 183.779 206.416C188.82 209.329 197.003 209.329 202.044 206.416C207.085 203.502 207.085 198.783 202.044 195.87C197.003 192.956 188.797 192.964 183.779 195.87Z" fill="#455A64"/>
<path opacity="0.07" d="M183.779 195.87C178.738 198.783 178.738 203.502 183.779 206.416C188.82 209.329 197.003 209.329 202.044 206.416C207.085 203.502 207.085 198.783 202.044 195.87C197.003 192.956 188.797 192.964 183.779 195.87Z" fill="white"/>
<path d="M328.444 318.762L276.649 348.665V317.184L328.444 287.282V318.762Z" fill="#80B51C"/>
<path d="M328.444 318.762L276.649 348.665V317.184L328.444 287.282V318.762Z" fill="#F39C1A"/>
<path d="M224.861 318.762L276.649 348.665V317.184L224.854 287.282L224.861 318.762Z" fill="#80B51C"/>
<path d="M224.861 318.762L276.649 348.665V317.184L224.854 287.282L224.861 318.762Z" fill="#EA920D"/>
<path d="M328.444 287.282L276.649 257.379L224.854 287.282L276.649 317.184L328.444 287.282Z" fill="#F4A52D"/>
<path d="M289.558 269.245C289.558 267.336 288.302 265.428 285.781 263.975C280.74 261.062 272.565 261.062 267.524 263.975C265.004 265.428 263.739 267.336 263.739 269.245V274.341C263.739 276.249 265.004 278.149 267.524 279.61C272.565 282.523 280.74 282.523 285.781 279.61C288.302 278.149 289.566 276.249 289.558 274.341V269.245Z" fill="#80B51C"/>
<path d="M285.781 263.968C288.302 265.421 289.566 267.329 289.558 269.237V274.333C289.558 276.241 288.302 278.142 285.781 279.602C282.975 281.103 279.831 281.863 276.649 281.809V261.785C279.83 261.72 282.974 262.472 285.781 263.968Z" fill="#F39C1A"/>
<path d="M267.524 263.968C265.004 265.42 263.739 267.329 263.739 269.237V274.333C263.739 276.241 265.004 278.142 267.524 279.602C270.328 281.102 273.469 281.861 276.649 281.809V261.785C273.471 261.721 270.329 262.472 267.524 263.968Z" fill="#EA920D"/>
<path d="M267.524 263.968C262.483 266.873 262.483 271.592 267.524 274.506C272.565 277.419 280.74 277.419 285.781 274.506C290.823 271.592 290.823 266.873 285.781 263.968C280.74 261.062 272.565 261.054 267.524 263.968Z" fill="#80B51C"/>
<path opacity="0.8" d="M267.524 263.968C262.483 266.873 262.483 271.592 267.524 274.506C272.565 277.419 280.74 277.419 285.781 274.506C290.823 271.592 290.823 266.873 285.781 263.968C280.74 261.062 272.565 261.054 267.524 263.968Z" fill="#F4A52D"/>
<path d="M289.558 298.401C289.558 296.501 288.302 294.593 285.781 293.132C280.74 290.219 272.565 290.219 267.524 293.132C265.004 294.593 263.739 296.493 263.739 298.401V303.497C263.739 305.405 265.004 307.314 267.524 308.766C272.565 311.68 280.74 311.68 285.781 308.766C288.302 307.314 289.566 305.405 289.558 303.497V298.401Z" fill="#80B51C"/>
<path d="M285.781 293.132C288.302 294.593 289.566 296.493 289.558 298.401V303.497C289.558 305.405 288.302 307.314 285.781 308.766C282.975 310.266 279.83 311.018 276.649 310.949V290.949C279.829 290.888 282.973 291.639 285.781 293.132Z" fill="#F39C1A"/>
<path d="M267.524 293.132C265.004 294.592 263.739 296.493 263.739 298.401V303.497C263.739 305.405 265.004 307.314 267.524 308.766C270.328 310.265 273.47 311.017 276.649 310.949V290.949C273.471 290.889 270.331 291.64 267.524 293.132Z" fill="#EA920D"/>
<path d="M267.524 293.132C262.483 296.045 262.483 300.765 267.524 303.678C272.565 306.591 280.74 306.583 285.781 303.678C290.823 300.772 290.823 296.045 285.781 293.132C280.74 290.219 272.565 290.219 267.524 293.132Z" fill="#80B51C"/>
<path opacity="0.8" d="M267.524 293.132C262.483 296.045 262.483 300.765 267.524 303.678C272.565 306.591 280.74 306.583 285.781 303.678C290.823 300.772 290.823 296.045 285.781 293.132C280.74 290.219 272.565 290.219 267.524 293.132Z" fill="#F4A52D"/>
<path d="M264.328 283.811C264.328 281.903 263.064 279.995 260.543 278.542C255.502 275.629 247.327 275.629 242.286 278.542C239.765 279.995 238.501 281.903 238.501 283.811V288.876C238.501 290.784 239.765 292.692 242.286 294.145C247.327 297.058 255.502 297.058 260.543 294.145C263.064 292.692 264.328 290.784 264.328 288.876C264.328 287.494 264.328 285.224 264.328 283.811Z" fill="#80B51C"/>
<path d="M260.527 278.542C263.048 279.994 264.312 281.903 264.312 283.811C264.312 285.224 264.312 287.494 264.312 288.907C264.312 290.815 263.048 292.723 260.527 294.176C257.72 295.672 254.576 296.424 251.395 296.359V276.359C254.575 276.298 257.719 277.049 260.527 278.542Z" fill="#F39C1A"/>
<path d="M242.27 278.542C239.75 279.995 238.485 281.903 238.485 283.811V288.876C238.485 290.784 239.75 292.692 242.27 294.145C245.075 295.64 248.217 296.392 251.395 296.328V276.359C248.217 276.299 245.077 277.05 242.27 278.542Z" fill="#EA920D"/>
<path d="M242.27 278.542C237.229 281.455 237.229 286.175 242.27 289.08C247.312 291.985 255.486 291.993 260.527 289.08C265.569 286.167 265.569 281.455 260.527 278.542C255.486 275.629 247.312 275.629 242.27 278.542Z" fill="#80B51C"/>
<path opacity="0.8" d="M242.27 278.542C237.229 281.455 237.229 286.175 242.27 289.08C247.312 291.985 255.486 291.993 260.527 289.08C265.569 286.167 265.569 281.455 260.527 278.542C255.486 275.629 247.312 275.629 242.27 278.542Z" fill="#F4A52D"/>
<path d="M314.812 283.819C314.812 281.911 313.555 280.003 311.035 278.55C305.993 275.637 297.819 275.637 292.778 278.55C290.249 280.003 288.993 281.911 288.993 283.819V288.915C288.993 290.823 290.249 292.732 292.77 294.184C297.819 297.098 305.993 297.098 311.035 294.184C313.555 292.732 314.812 290.823 314.812 288.915V283.819Z" fill="#80B51C"/>
<path d="M311.035 278.55C313.555 280.002 314.812 281.911 314.812 283.819V288.915C314.812 290.823 313.555 292.731 311.035 294.184C308.227 295.68 305.083 296.432 301.902 296.367V276.367C305.083 276.306 308.226 277.057 311.035 278.55Z" fill="#F39C1A"/>
<path d="M292.778 278.55C290.249 280.002 288.993 281.911 288.993 283.819V288.915C288.993 290.823 290.249 292.731 292.77 294.184C295.578 295.679 298.722 296.431 301.902 296.367V276.367C298.724 276.306 295.584 277.057 292.778 278.55Z" fill="#EA920D"/>
<path d="M292.778 278.55C287.728 281.463 287.728 286.183 292.778 289.096C297.827 292.009 306.001 292.001 311.043 289.096C316.084 286.19 316.084 281.463 311.043 278.55C306.001 275.637 297.819 275.637 292.778 278.55Z" fill="#80B51C"/>
<path opacity="0.8" d="M292.778 278.55C287.728 281.463 287.728 286.183 292.778 289.096C297.827 292.009 306.001 292.001 311.043 289.096C316.084 286.19 316.084 281.463 311.043 278.55C306.001 275.637 297.819 275.637 292.778 278.55Z" fill="#F4A52D"/>
<path d="M269.96 202.333L218.165 232.235V200.754L269.96 170.852V202.333Z" fill="#80B51C"/>
<path opacity="0.3" d="M269.96 202.333L218.165 232.235V200.754L269.96 170.852V202.333Z" fill="#80B51C"/>
<path d="M166.37 202.333L218.165 232.235V200.754L166.37 170.852V202.333Z" fill="#80B51C"/>
<path opacity="0.4" d="M166.37 202.333L218.165 232.235V200.754L166.37 170.852V202.333Z" fill="black"/>
<path d="M269.96 170.852L218.165 140.949L166.37 170.852L218.165 200.754L269.96 170.852Z" fill="#80B51C"/>
<path opacity="0.55" d="M269.96 170.852L218.165 140.949L166.37 170.852L218.165 200.754L269.96 170.852Z" fill="black"/>
<path d="M231.075 152.807C231.075 150.899 229.819 148.99 227.298 147.538C222.257 144.624 214.074 144.624 209.033 147.538C206.512 148.99 205.256 150.899 205.256 152.807V157.903C205.256 159.811 206.512 161.719 209.033 163.172C214.074 166.085 222.249 166.085 227.298 163.172C229.819 161.719 231.075 159.811 231.075 157.903V152.807Z" fill="#80B51C"/>
<path opacity="0.3" d="M227.274 147.537C229.795 148.99 231.051 150.898 231.051 152.806V157.903C231.051 159.811 229.795 161.719 227.274 163.172C224.465 164.664 221.322 165.416 218.142 165.355V145.354C221.322 145.29 224.467 146.041 227.274 147.537Z" fill="black"/>
<path opacity="0.4" d="M209.033 147.537C206.512 148.99 205.256 150.898 205.256 152.806V157.903C205.256 159.811 206.512 161.719 209.033 163.172C211.842 164.664 214.985 165.416 218.165 165.355V145.354C214.985 145.29 211.84 146.041 209.033 147.537Z" fill="black"/>
<path d="M209.033 147.538C203.992 150.443 203.992 155.163 209.033 158.076C214.074 160.989 222.249 160.989 227.298 158.076C232.347 155.163 232.339 150.443 227.298 147.538C222.257 144.632 214.074 144.624 209.033 147.538Z" fill="#80B51C"/>
<path opacity="0.3" d="M209.033 147.538C203.992 150.443 203.992 155.163 209.033 158.076C214.074 160.989 222.249 160.989 227.298 158.076C232.347 155.163 232.339 150.443 227.298 147.538C222.257 144.632 214.074 144.624 209.033 147.538Z" fill="white"/>
<path d="M231.075 181.979C231.075 180.071 229.819 178.162 227.298 176.702C222.257 173.796 214.074 173.796 209.033 176.702C206.512 178.162 205.256 180.071 205.256 181.971V187.075C205.256 188.983 206.512 190.891 209.033 192.352C214.074 195.257 222.249 195.257 227.298 192.352C229.819 190.891 231.075 188.983 231.075 187.075V181.979Z" fill="#80B51C"/>
<path opacity="0.3" d="M227.274 176.702C229.795 178.162 231.051 180.071 231.051 181.971V187.075C231.051 188.983 229.795 190.891 227.274 192.352C224.465 193.845 221.322 194.596 218.142 194.535V174.511C221.323 174.452 224.466 175.206 227.274 176.702Z" fill="black"/>
<path opacity="0.4" d="M209.033 176.702C206.512 178.162 205.256 180.071 205.256 181.971V187.075C205.256 188.983 206.512 190.891 209.033 192.352C211.842 193.845 214.985 194.596 218.165 194.535V174.511C214.984 174.452 211.841 175.206 209.033 176.702Z" fill="black"/>
<path d="M209.033 176.702C203.992 179.615 203.992 184.335 209.033 187.248C214.074 190.161 222.249 190.161 227.298 187.248C232.347 184.335 232.339 179.615 227.298 176.702C222.257 173.789 214.074 173.797 209.033 176.702Z" fill="#80B51C"/>
<path opacity="0.3" d="M209.033 176.702C203.992 179.615 203.992 184.335 209.033 187.248C214.074 190.161 222.249 190.161 227.298 187.248C232.347 184.335 232.339 179.615 227.298 176.702C222.257 173.789 214.074 173.797 209.033 176.702Z" fill="white"/>
<path d="M205.821 167.381C205.821 165.473 204.565 163.565 202.044 162.112C197.003 159.199 188.828 159.199 183.779 162.112C181.258 163.565 180.002 165.473 180.002 167.381V172.477C180.002 174.385 181.258 176.294 183.779 177.746C188.82 180.66 197.003 180.66 202.044 177.746C204.565 176.294 205.821 174.385 205.821 172.477V167.381Z" fill="#80B51C"/>
<path opacity="0.3" d="M202.044 162.112C204.565 163.564 205.821 165.473 205.821 167.381V172.477C205.821 174.385 204.565 176.293 202.044 177.746C199.237 179.242 196.092 179.994 192.912 179.929V159.929C196.092 159.868 199.235 160.619 202.044 162.112Z" fill="black"/>
<path opacity="0.4" d="M183.779 162.112C181.258 163.564 180.002 165.473 180.002 167.381V172.477C180.002 174.385 181.258 176.293 183.779 177.746C186.587 179.242 189.731 179.994 192.911 179.929V159.929C189.731 159.868 186.588 160.619 183.779 162.112Z" fill="black"/>
<path d="M183.779 162.112C178.738 165.025 178.738 169.745 183.779 172.658C188.82 175.571 197.003 175.563 202.044 172.658C207.085 169.752 207.085 165.025 202.044 162.112C197.003 159.199 188.797 159.199 183.779 162.112Z" fill="#80B51C"/>
<path opacity="0.3" d="M183.779 162.112C178.738 165.025 178.738 169.745 183.779 172.658C188.82 175.571 197.003 175.563 202.044 172.658C207.085 169.752 207.085 165.025 202.044 162.112C197.003 159.199 188.797 159.199 183.779 162.112Z" fill="white"/>
<path d="M256.328 167.389C256.328 165.489 255.072 163.581 252.543 162.12C247.502 159.207 239.328 159.207 234.286 162.12C231.766 163.581 230.509 165.481 230.509 167.389V172.485C230.509 174.393 231.766 176.302 234.286 177.754C239.328 180.668 247.502 180.668 252.543 177.754C255.072 176.302 256.328 174.393 256.328 172.485V167.389Z" fill="#80B51C"/>
<path opacity="0.3" d="M252.544 162.12C255.064 163.58 256.328 165.48 256.328 167.389V172.485C256.328 174.393 255.064 176.301 252.544 177.754C249.739 179.25 246.597 180.002 243.419 179.937V159.937C246.597 159.875 249.737 160.627 252.544 162.12Z" fill="black"/>
<path opacity="0.4" d="M234.286 162.12C231.766 163.58 230.509 165.48 230.509 167.389V172.485C230.509 174.393 231.766 176.301 234.286 177.754C237.094 179.25 240.238 180.002 243.419 179.937V159.937C240.239 159.876 237.095 160.627 234.286 162.12Z" fill="black"/>
<path d="M234.286 162.12C229.245 165.033 229.245 169.753 234.286 172.666C239.328 175.579 247.502 175.571 252.543 172.666C257.585 169.761 257.593 165.033 252.543 162.12C247.494 159.207 239.328 159.207 234.286 162.12Z" fill="#80B51C"/>
<path opacity="0.3" d="M234.286 162.12C229.245 165.033 229.245 169.753 234.286 172.666C239.328 175.579 247.502 175.571 252.543 172.666C257.585 169.761 257.593 165.033 252.543 162.12C247.494 159.207 239.328 159.207 234.286 162.12Z" fill="white"/>
<path d="M215.441 267.563L163.646 297.473V265.993L215.441 236.09V267.563Z" fill="#80B51C"/>
<path opacity="0.3" d="M215.441 267.563L163.646 297.473V265.993L215.441 236.09V267.563Z" fill="#80B51C"/>
<path d="M111.85 267.563L163.645 297.473V265.993L111.85 236.09V267.563Z" fill="#80B51C"/>
<path opacity="0.4" d="M111.85 267.563L163.645 297.473V265.993L111.85 236.09V267.563Z" fill="black"/>
<path d="M215.441 236.09L163.646 206.188L111.851 236.09L163.646 265.992L215.441 236.09Z" fill="#80B51C"/>
<path opacity="0.55" d="M215.441 236.09L163.646 206.188L111.851 236.09L163.646 265.992L215.441 236.09Z" fill="black"/>
<path d="M176.555 218.045C176.555 216.137 175.299 214.229 172.778 212.776C167.737 209.863 159.562 209.863 154.513 212.776C151.992 214.229 150.736 216.137 150.736 218.045V223.142C150.736 225.05 151.992 226.958 154.513 228.411C159.554 231.324 167.737 231.324 172.778 228.411C175.299 226.958 176.555 225.05 176.555 223.142V218.045Z" fill="#80B51C"/>
<path opacity="0.3" d="M172.777 212.776C175.298 214.229 176.554 216.137 176.554 218.045V223.142C176.554 225.05 175.298 226.958 172.777 228.411C169.975 229.899 166.841 230.651 163.668 230.594V210.633C166.838 210.56 169.973 211.298 172.777 212.776Z" fill="black"/>
<path opacity="0.4" d="M154.513 212.776C151.992 214.229 150.736 216.137 150.736 218.045V223.142C150.736 225.05 151.992 226.958 154.513 228.411C157.329 229.907 160.481 230.659 163.669 230.594V210.632C160.484 210.551 157.331 211.29 154.513 212.776Z" fill="black"/>
<path d="M154.513 212.776C149.472 215.681 149.472 220.401 154.513 223.314C159.554 226.227 167.737 226.227 172.778 223.314C177.819 220.401 177.819 215.681 172.778 212.776C167.737 209.871 159.562 209.847 154.513 212.776Z" fill="#80B51C"/>
<path opacity="0.3" d="M154.513 212.776C149.472 215.681 149.472 220.401 154.513 223.314C159.554 226.227 167.737 226.227 172.778 223.314C177.819 220.401 177.819 215.681 172.778 212.776C167.737 209.871 159.562 209.847 154.513 212.776Z" fill="white"/>
<path d="M176.555 247.209C176.555 245.309 175.299 243.401 172.778 241.94C167.737 239.027 159.562 239.027 154.513 241.94C151.992 243.401 150.736 245.301 150.736 247.209V252.306C150.736 254.214 151.992 256.122 154.513 257.575C159.554 260.488 167.737 260.488 172.778 257.575C175.299 256.122 176.555 254.214 176.555 252.306V247.209Z" fill="#80B51C"/>
<path opacity="0.3" d="M172.777 241.94C175.298 243.401 176.554 245.301 176.554 247.209V252.305C176.554 254.214 175.298 256.122 172.777 257.575C169.977 259.069 166.842 259.823 163.668 259.765V239.757C166.841 239.7 169.975 240.451 172.777 241.94Z" fill="black"/>
<path opacity="0.4" d="M154.513 241.94C151.992 243.401 150.736 245.301 150.736 247.209V252.306C150.736 254.214 151.992 256.122 154.513 257.575C157.327 259.077 160.48 259.832 163.669 259.766V239.757C160.481 239.692 157.329 240.444 154.513 241.94Z" fill="black"/>
<path d="M154.513 241.94C149.472 244.854 149.472 249.573 154.513 252.486C159.554 255.4 167.737 255.392 172.778 252.486C177.819 249.581 177.819 244.854 172.778 241.94C167.737 239.027 159.562 239.027 154.513 241.94Z" fill="#80B51C"/>
<path opacity="0.3" d="M154.513 241.94C149.472 244.854 149.472 249.573 154.513 252.486C159.554 255.4 167.737 255.392 172.778 252.486C177.819 249.581 177.819 244.854 172.778 241.94C167.737 239.027 159.562 239.027 154.513 241.94Z" fill="white"/>
<path d="M151.301 232.619C151.301 230.711 150.045 228.803 147.524 227.35C142.483 224.437 134.308 224.437 129.259 227.35C126.738 228.803 125.482 230.711 125.482 232.619V237.716C125.482 239.624 126.738 241.532 129.259 242.985C134.3 245.898 142.483 245.898 147.524 242.985C150.045 241.532 151.301 239.624 151.301 237.716V232.619Z" fill="#80B51C"/>
<path opacity="0.3" d="M147.524 227.351C150.045 228.803 151.301 230.711 151.301 232.62V237.716C151.301 239.624 150.045 241.532 147.524 242.985C144.718 244.487 141.574 245.244 138.392 245.184V225.168C141.572 225.106 144.715 225.858 147.524 227.351Z" fill="black"/>
<path opacity="0.4" d="M129.259 227.35C126.738 228.803 125.482 230.711 125.482 232.619V237.716C125.482 239.624 126.738 241.532 129.259 242.985C132.065 244.486 135.209 245.243 138.391 245.183V225.167C135.211 225.107 132.068 225.859 129.259 227.35Z" fill="black"/>
<path d="M129.259 227.35C124.218 230.264 124.218 234.983 129.259 237.888C134.3 240.794 142.483 240.802 147.524 237.888C152.565 234.975 152.565 230.264 147.524 227.35C142.483 224.437 134.308 224.437 129.259 227.35Z" fill="#80B51C"/>
<path opacity="0.3" d="M129.259 227.35C124.218 230.264 124.218 234.983 129.259 237.888C134.3 240.794 142.483 240.802 147.524 237.888C152.565 234.975 152.565 230.264 147.524 227.35C142.483 224.437 134.308 224.437 129.259 227.35Z" fill="white"/>
<path d="M201.808 232.619C201.808 230.711 200.552 228.811 198.023 227.35C192.982 224.437 184.808 224.437 179.766 227.35C177.246 228.803 175.989 230.711 175.989 232.619V237.716C175.989 239.624 177.246 241.532 179.766 242.985C184.808 245.898 192.982 245.898 198.023 242.985C200.552 241.532 201.808 239.624 201.808 237.716V232.619Z" fill="#80B51C"/>
<path opacity="0.3" d="M198.024 227.358C200.544 228.811 201.808 230.719 201.808 232.627V237.723C201.808 239.632 200.552 241.54 198.031 242.992C195.224 244.49 192.08 245.245 188.899 245.183V225.175C192.077 225.114 195.217 225.865 198.024 227.358Z" fill="black"/>
<path opacity="0.4" d="M179.766 227.358C177.246 228.811 175.989 230.719 175.989 232.627V237.723C175.989 239.632 177.246 241.54 179.766 242.992C182.573 244.491 185.717 245.246 188.899 245.183V225.175C185.718 225.114 182.575 225.865 179.766 227.358Z" fill="black"/>
<path d="M179.766 227.359C174.725 230.272 174.725 234.991 179.766 237.904C184.808 240.818 192.982 240.81 198.023 237.904C203.065 234.999 203.073 230.272 198.023 227.359C192.974 224.445 184.808 224.445 179.766 227.359Z" fill="#80B51C"/>
<path opacity="0.3" d="M179.766 227.359C174.725 230.272 174.725 234.991 179.766 237.904C184.808 240.818 192.982 240.81 198.023 237.904C203.065 234.999 203.073 230.272 198.023 227.359C192.974 224.445 184.808 224.445 179.766 227.359Z" fill="white"/>
<path d="M215.441 233.805L163.646 263.708V232.235L215.441 202.333V233.805Z" fill="#ACEE2E"/>
<path opacity="0.1" d="M215.441 233.805L163.646 263.708V232.235L215.441 202.333V233.805Z" fill="black"/>
<path d="M111.85 233.805L163.645 263.708V232.235L111.85 202.333V233.805Z" fill="#ACEE2E"/>
<path opacity="0.2" d="M111.85 233.805L163.645 263.708V232.235L111.85 202.333V233.805Z" fill="black"/>
<path d="M215.441 202.332L163.646 172.422L111.851 202.332L163.646 232.235L215.441 202.332Z" fill="#AFE150"/>
<path d="M176.555 184.279C176.555 182.371 175.299 180.471 172.778 179.01C167.737 176.097 159.562 176.097 154.513 179.01C151.992 180.471 150.736 182.371 150.736 184.279V189.376C150.736 191.284 151.992 193.192 154.513 194.645C159.554 197.558 167.737 197.558 172.778 194.645C175.299 193.192 176.555 191.284 176.555 189.376V184.279Z" fill="#ACEE2E"/>
<path opacity="0.1" d="M172.777 179.01C175.298 180.471 176.554 182.371 176.554 184.28V189.376C176.554 191.284 175.298 193.192 172.777 194.645C169.977 196.137 166.841 196.889 163.668 196.828V176.867C166.837 176.798 169.972 177.535 172.777 179.01Z" fill="black"/>
<path opacity="0.2" d="M154.513 179.01C151.992 180.471 150.736 182.371 150.736 184.279V189.376C150.736 191.284 151.992 193.192 154.513 194.645C157.327 196.145 160.48 196.897 163.669 196.828V176.867C160.484 176.789 157.332 177.527 154.513 179.01Z" fill="black"/>
<path d="M154.513 179.011C149.472 181.924 149.472 186.643 154.513 189.557C159.554 192.47 167.737 192.462 172.778 189.557C177.819 186.651 177.819 181.924 172.778 179.011C167.737 176.097 159.562 176.082 154.513 179.011Z" fill="#ACEE2E"/>
<path opacity="0.3" d="M154.513 179.011C149.472 181.924 149.472 186.643 154.513 189.557C159.554 192.47 167.737 192.462 172.778 189.557C177.819 186.651 177.819 181.924 172.778 179.011C167.737 176.097 159.562 176.082 154.513 179.011Z" fill="white"/>
<path d="M176.555 213.452C176.555 211.543 175.299 209.635 172.778 208.183C167.737 205.269 159.562 205.269 154.513 208.183C151.992 209.635 150.736 211.543 150.736 213.452V218.548C150.736 220.456 151.992 222.364 154.513 223.817C159.554 226.73 167.737 226.73 172.778 223.817C175.299 222.364 176.555 220.456 176.555 218.548V213.452Z" fill="#ACEE2E"/>
<path opacity="0.1" d="M172.777 208.183C175.298 209.635 176.554 211.544 176.554 213.452V218.548C176.554 220.456 175.298 222.364 172.777 223.817C169.975 225.306 166.841 226.057 163.668 226V206C166.841 205.939 169.977 206.69 172.777 208.183Z" fill="black"/>
<path opacity="0.2" d="M154.513 208.182C151.992 209.635 150.736 211.543 150.736 213.451V218.548C150.736 220.456 151.992 222.364 154.513 223.817C157.329 225.313 160.481 226.065 163.669 226V205.999C160.48 205.931 157.327 206.682 154.513 208.182Z" fill="black"/>
<path d="M154.513 208.183C149.472 211.096 149.472 215.815 154.513 218.721C159.554 221.626 167.737 221.634 172.778 218.721C177.819 215.807 177.819 211.096 172.778 208.183C167.737 205.269 159.562 205.269 154.513 208.183Z" fill="#ACEE2E"/>
<path opacity="0.3" d="M154.513 208.183C149.472 211.096 149.472 215.815 154.513 218.721C159.554 221.626 167.737 221.634 172.778 218.721C177.819 215.807 177.819 211.096 172.778 208.183C167.737 205.269 159.562 205.269 154.513 208.183Z" fill="white"/>
<path d="M151.301 198.854C151.301 196.946 150.045 195.037 147.524 193.585C142.483 190.671 134.308 190.671 129.259 193.585C126.738 195.037 125.482 196.946 125.482 198.854V203.95C125.482 205.858 126.738 207.758 129.259 209.219C134.3 212.124 142.483 212.132 147.524 209.219C150.045 207.758 151.301 205.85 151.301 203.95V198.854Z" fill="#ACEE2E"/>
<path opacity="0.1" d="M147.524 193.592C150.045 195.045 151.301 196.953 151.301 198.861V203.958C151.301 205.866 150.045 207.766 147.524 209.227C144.716 210.722 141.573 211.476 138.392 211.418V191.401C141.573 191.339 144.717 192.094 147.524 193.592Z" fill="black"/>
<path opacity="0.2" d="M129.259 193.592C126.738 195.045 125.482 196.953 125.482 198.861V203.958C125.482 205.866 126.738 207.766 129.259 209.227C132.067 210.722 135.21 211.476 138.391 211.417V191.401C135.21 191.34 132.066 192.094 129.259 193.592Z" fill="black"/>
<path d="M129.259 193.592C124.218 196.498 124.218 201.217 129.259 204.13C134.3 207.044 142.483 207.044 147.524 204.13C152.565 201.217 152.565 196.498 147.524 193.592C142.483 190.687 134.308 190.679 129.259 193.592Z" fill="#ACEE2E"/>
<path opacity="0.3" d="M129.259 193.592C124.218 196.498 124.218 201.217 129.259 204.13C134.3 207.044 142.483 207.044 147.524 204.13C152.565 201.217 152.565 196.498 147.524 193.592C142.483 190.687 134.308 190.679 129.259 193.592Z" fill="white"/>
<path d="M201.808 198.854C201.808 196.946 200.552 195.037 198.023 193.585C192.982 190.671 184.808 190.671 179.766 193.585C177.246 195.037 175.989 196.946 175.989 198.854V203.95C175.989 205.858 177.246 207.766 179.766 209.219C184.808 212.132 192.982 212.132 198.023 209.219C200.552 207.766 201.808 205.858 201.808 203.95V198.854Z" fill="#ACEE2E"/>
<path opacity="0.1" d="M198.024 193.6C200.544 195.053 201.808 196.961 201.808 198.869V203.966C201.808 205.874 200.552 207.782 198.031 209.235C195.222 210.726 192.079 211.478 188.899 211.418V191.417C192.077 191.352 195.219 192.104 198.024 193.6Z" fill="black"/>
<path opacity="0.2" d="M179.766 193.6C177.246 195.053 175.989 196.961 175.989 198.869V203.966C175.989 205.874 177.246 207.782 179.766 209.235C182.575 210.727 185.718 211.479 188.899 211.418V191.417C185.718 191.352 182.574 192.104 179.766 193.6Z" fill="black"/>
<path d="M179.766 193.6C174.725 196.506 174.725 201.225 179.766 204.139C184.808 207.052 192.982 207.052 198.023 204.139C203.065 201.225 203.073 196.506 198.023 193.6C192.974 190.695 184.808 190.687 179.766 193.6Z" fill="#ACEE2E"/>
<path opacity="0.3" d="M179.766 193.6C174.725 196.506 174.725 201.225 179.766 204.139C184.808 207.052 192.982 207.052 198.023 204.139C203.065 201.225 203.073 196.506 198.023 193.6C192.974 190.695 184.808 190.687 179.766 193.6Z" fill="white"/>
<path d="M269.96 168.574L218.165 198.485V167.004L269.96 137.102V168.574Z" fill="#882EDF"/>
<path d="M166.37 168.574L218.165 198.485V167.004L166.37 137.102V168.574Z" fill="#7E20D8"/>
<path d="M269.96 137.102L218.165 107.199L166.37 137.102L218.165 167.004L269.96 137.102Z" fill="#9A59D9"/>
<path d="M227.274 142.952C229.795 144.412 231.051 146.321 231.051 148.221V153.309C231.051 155.218 229.795 157.126 227.274 158.586C224.465 160.079 221.322 160.83 218.142 160.769V140.745C221.324 140.692 224.467 141.451 227.274 142.952Z" fill="#882EDF"/>
<path d="M209.033 142.952C206.512 144.412 205.256 146.321 205.256 148.221V153.309C205.256 155.218 206.512 157.126 209.033 158.586C211.842 160.079 214.985 160.83 218.165 160.769V140.745C214.983 140.692 211.84 141.451 209.033 142.952Z" fill="#7E20D8"/>
<path d="M209.033 142.952C203.992 145.865 203.992 150.584 209.033 153.498C214.074 156.411 222.249 156.403 227.298 153.498C232.347 150.592 232.339 145.865 227.298 142.952C222.257 140.039 214.074 140.046 209.033 142.952Z" fill="#455A64"/>
<path opacity="0.8" d="M209.033 142.952C203.992 145.865 203.992 150.584 209.033 153.498C214.074 156.411 222.249 156.403 227.298 153.498C232.347 150.592 232.339 145.865 227.298 142.952C222.257 140.039 214.074 140.046 209.033 142.952Z" fill="#9A59D9"/>
<path d="M227.274 113.788C229.795 115.24 231.051 117.149 231.051 119.057V124.153C231.051 126.061 229.795 127.969 227.274 129.422C224.465 130.915 221.322 131.666 218.142 131.605V111.605C221.322 111.54 224.467 112.291 227.274 113.788Z" fill="#882EDF"/>
<path d="M209.033 113.788C206.512 115.24 205.256 117.149 205.256 119.057V124.153C205.256 126.061 206.512 127.969 209.033 129.422C211.842 130.915 214.985 131.666 218.165 131.605V111.605C214.985 111.54 211.84 112.291 209.033 113.788Z" fill="#7E20D8"/>
<path d="M209.033 113.787C203.992 116.693 203.992 121.412 209.033 124.326C214.074 127.239 222.249 127.239 227.298 124.326C232.347 121.412 232.339 116.693 227.298 113.787C222.257 110.882 214.074 110.906 209.033 113.787Z" fill="#455A64"/>
<path opacity="0.8" d="M209.033 113.787C203.992 116.693 203.992 121.412 209.033 124.326C214.074 127.239 222.249 127.239 227.298 124.326C232.347 121.412 232.339 116.693 227.298 113.787C222.257 110.882 214.074 110.906 209.033 113.787Z" fill="#9A59D9"/>
<path d="M252.544 128.37C255.064 129.83 256.328 131.73 256.328 133.639V138.735C256.328 140.643 255.064 142.551 252.544 144.004C249.739 145.5 246.597 146.252 243.419 146.187V126.187C246.597 126.125 249.737 126.877 252.544 128.37Z" fill="#882EDF"/>
<path d="M234.286 128.37C231.766 129.83 230.509 131.73 230.509 133.639V138.735C230.509 140.643 231.766 142.551 234.286 144.004C237.094 145.5 240.238 146.252 243.419 146.187V126.187C240.239 126.126 237.095 126.877 234.286 128.37Z" fill="#7E20D8"/>
<path d="M234.286 128.37C229.245 131.283 229.245 136.002 234.286 138.915C239.328 141.829 247.502 141.821 252.543 138.915C257.585 136.01 257.593 131.283 252.543 128.37C247.494 125.456 239.328 125.456 234.286 128.37Z" fill="#455A64"/>
<path opacity="0.8" d="M234.286 128.37C229.245 131.283 229.245 136.002 234.286 138.915C239.328 141.829 247.502 141.821 252.543 138.915C257.585 136.01 257.593 131.283 252.543 128.37C247.494 125.456 239.328 125.456 234.286 128.37Z" fill="#9A59D9"/>
<path d="M202.044 128.362C204.565 129.814 205.821 131.723 205.821 133.631V138.727C205.821 140.635 204.565 142.543 202.044 143.996C199.237 145.492 196.092 146.244 192.912 146.179V126.179C196.092 126.118 199.235 126.869 202.044 128.362Z" fill="#882EDF"/>
<path d="M183.779 128.362C181.258 129.814 180.002 131.723 180.002 133.631V138.727C180.002 140.635 181.258 142.543 183.779 143.996C186.587 145.492 189.731 146.244 192.911 146.179V126.179C189.731 126.118 186.588 126.869 183.779 128.362Z" fill="#7E20D8"/>
<path d="M183.779 128.362C178.738 131.275 178.738 135.994 183.779 138.9C188.82 141.805 197.003 141.813 202.044 138.9C207.085 135.987 207.085 131.267 202.044 128.354C197.003 125.441 188.797 125.448 183.779 128.362Z" fill="#455A64"/>
<path opacity="0.8" d="M183.779 128.362C178.738 131.275 178.738 135.994 183.779 138.9C188.82 141.805 197.003 141.813 202.044 138.9C207.085 135.987 207.085 131.267 202.044 128.354C197.003 125.441 188.797 125.448 183.779 128.362Z" fill="#9A59D9"/>
<path d="M160.921 299.044L109.125 328.946V297.473L160.921 267.563V299.044Z" fill="#80B51C"/>
<path d="M57.3301 299.044L109.125 328.946V297.473L57.3301 267.563V299.044Z" fill="#709F15"/>
<path d="M160.92 267.563L109.125 237.661L57.3301 267.563L109.125 297.473L160.92 267.563Z" fill="#598800"/>
<path d="M118.258 273.453C120.779 274.905 122.035 276.813 122.035 278.722V283.818C122.035 285.726 120.779 287.634 118.258 289.087C115.449 290.58 112.306 291.331 109.125 291.27V271.238C112.309 271.183 115.453 271.945 118.258 273.453Z" fill="#80B51C"/>
<path d="M99.9929 273.453C97.4722 274.905 96.2158 276.813 96.2158 278.722V283.818C96.2158 285.726 97.4722 287.634 99.9929 289.087C102.802 290.58 105.945 291.331 109.125 291.27V271.238C105.942 271.183 102.797 271.945 99.9929 273.453Z" fill="#709F15"/>
<path d="M99.9929 273.453C94.9516 276.358 94.9516 281.085 99.9929 283.991C105.034 286.896 113.217 286.904 118.258 283.991C123.299 281.077 123.299 276.366 118.258 273.453C113.217 270.539 105.042 270.508 99.9929 273.453Z" fill="#598800"/>
<path opacity="0.07" d="M99.9929 273.453C94.9516 276.358 94.9516 281.085 99.9929 283.991C105.034 286.896 113.217 286.904 118.258 283.991C123.299 281.077 123.299 276.366 118.258 273.453C113.217 270.539 105.042 270.508 99.9929 273.453Z" fill="white"/>
<path d="M118.258 244.249C120.779 245.702 122.035 247.61 122.035 249.518V254.607C122.035 256.515 120.779 258.423 118.258 259.876C115.45 261.372 112.306 262.124 109.125 262.059V242.043C112.308 241.989 115.451 242.748 118.258 244.249Z" fill="#80B51C"/>
<path d="M99.9929 244.249C97.4722 245.702 96.2158 247.61 96.2158 249.518V254.607C96.2158 256.515 97.4722 258.423 99.9929 259.876C102.8 261.372 105.945 262.124 109.125 262.059V242.043C105.943 241.989 102.8 242.748 99.9929 244.249Z" fill="#709F15"/>
<path d="M99.9929 244.249C94.9516 247.162 94.9516 251.882 99.9929 254.795C105.034 257.708 113.217 257.701 118.258 254.795C123.299 251.89 123.299 247.162 118.258 244.249C113.217 241.336 105.042 241.336 99.9929 244.249Z" fill="#598800"/>
<path opacity="0.07" d="M99.9929 244.249C94.9516 247.162 94.9516 251.882 99.9929 254.795C105.034 257.708 113.217 257.701 118.258 254.795C123.299 251.89 123.299 247.162 118.258 244.249C113.217 241.336 105.042 241.336 99.9929 244.249Z" fill="white"/>
<path d="M143.504 258.839C146.025 260.292 147.289 262.2 147.289 264.108V269.204C147.289 271.112 146.033 273.021 143.512 274.473C140.703 275.965 137.56 276.716 134.379 276.656V256.656C137.558 256.591 140.699 257.343 143.504 258.839Z" fill="#80B51C"/>
<path d="M125.247 258.839C122.726 260.292 121.47 262.2 121.47 264.108V269.204C121.47 271.112 122.726 273.021 125.247 274.473C128.056 275.966 131.199 276.717 134.379 276.656V256.656C131.199 256.591 128.054 257.343 125.247 258.839Z" fill="#709F15"/>
<path d="M125.246 258.839C120.205 261.744 120.205 266.464 125.246 269.377C130.288 272.29 138.462 272.29 143.503 269.377C148.545 266.464 148.553 261.744 143.503 258.839C138.454 255.934 130.288 255.926 125.246 258.839Z" fill="#598800"/>
<path opacity="0.07" d="M125.246 258.839C120.205 261.744 120.205 266.464 125.246 269.377C130.288 272.29 138.462 272.29 143.503 269.377C148.545 266.464 148.553 261.744 143.503 258.839C138.454 255.934 130.288 255.926 125.246 258.839Z" fill="white"/>
<path d="M92.9962 258.823C95.5169 260.284 96.7733 262.192 96.7733 264.1V269.197C96.7733 271.097 95.5169 273.005 92.9962 274.466C90.1873 275.958 87.0441 276.71 83.8638 276.649V256.64C87.0441 256.579 90.1873 257.331 92.9962 258.823Z" fill="#80B51C"/>
<path d="M74.739 258.823C72.2183 260.284 70.9619 262.192 70.9619 264.1V269.196C70.9619 271.097 72.2183 273.005 74.739 274.466C77.5479 275.958 80.6912 276.71 83.8714 276.649V256.64C80.6913 256.58 77.5482 257.332 74.739 258.823Z" fill="#709F15"/>
<path d="M74.739 258.823C69.6977 261.737 69.6977 266.456 74.739 269.369C79.7803 272.283 87.9626 272.283 93.0039 269.369C98.0452 266.456 98.0452 261.737 93.0039 258.831C87.9626 255.926 79.7882 255.918 74.739 258.823Z" fill="#598800"/>
<path opacity="0.07" d="M74.739 258.823C69.6977 261.737 69.6977 266.456 74.739 269.369C79.7803 272.283 87.9626 272.283 93.0039 269.369C98.0452 266.456 98.0452 261.737 93.0039 258.831C87.9626 255.926 79.7882 255.918 74.739 258.823Z" fill="white"/>
<defs>
<filter id="filter0_d_167:810" x="117.232" y="0.482306" width="280.285" height="41.5237" filterUnits="userSpaceOnUse" color-interpolation-filters="sRGB">
<feFlood flood-opacity="0" result="BackgroundImageFix"/>
<feColorMatrix in="SourceAlpha" type="matrix" values="0 0 0 0 0 0 0 0 0 0 0 0 0 0 0 0 0 0 127 0" result="hardAlpha"/>
<feOffset/>
<feGaussianBlur stdDeviation="4.25885"/>
<feColorMatrix type="matrix" values="0 0 0 0 0 0 0 0 0 0 0 0 0 0 0 0 0 0 0.1 0"/>
<feBlend mode="normal" in2="BackgroundImageFix" result="effect1_dropShadow_167:810"/>
<feBlend mode="normal" in="SourceGraphic" in2="effect1_dropShadow_167:810" result="shape"/>
</filter>
<clipPath id="clip0_167:810">
<rect width="263.25" height="24.4884" fill="white" transform="translate(125.75 9)"/>
</clipPath>
</defs>
</svg>
